<svg xmlns="http://www.w3.org/2000/svg" width="1920" height="1080"><path d="M-197,-242L210,-243L904,-266Z" fill="#a6a6a6" stroke="#a6a6a6" stroke-width="1.51"/><path d="M210,-243L638,-233L904,-266Z" fill="#acacac" stroke="#acacac" stroke-width="1.51"/><path d="M758,1300L396,1310L1083,1314Z" fill="#dfdfdf" stroke="#dfdfdf" stroke-width="1.51"/><path d="M1083,1314L396,1310L1465,1334Z" fill="#e5e5e5" stroke="#e5e5e5" stroke-width="1.51"/><path d="M1704,1313L1465,1334L1927,1306Z" fill="#f4f4f4" stroke="#f4f4f4" stroke-width="1.51"/><path d="M1881,1299L1704,1313L1927,1306Z" fill="#f6f6f6" stroke="#f6f6f6" stroke-width="1.51"/><path d="M1525,-266L1889,-228L2061,-221Z" fill="#c6c6c6" stroke="#c6c6c6" stroke-width="1.51"/><path d="M2049,1196L2075,1241L2133,989Z" fill="#f6f6f6" stroke="#f6f6f6" stroke-width="1.51"/><path d="M2037,1044L2049,1196L2133,989Z" fill="#f4f4f4" stroke="#f4f4f4" stroke-width="1.51"/><path d="M1977,618L2105,721L2143,585Z" fill="#e6e6e6" stroke="#e6e6e6" stroke-width="1.51"/><path d="M2109,25L2068,197L2150,493Z" fill="#dadada" stroke="#dadada" stroke-width="1.51"/><path d="M2068,197L2074,404L2150,493Z" fill="#dedede" stroke="#dedede" stroke-width="1.51"/><path d="M2105,721L2037,746L2157,864Z" fill="#ebebeb" stroke="#ebebeb" stroke-width="1.51"/><path d="M1955,894L2133,989L2157,864Z" fill="#efefef" stroke="#efefef" stroke-width="1.51"/><path d="M2037,746L1955,894L2157,864Z" fill="#ececec" stroke="#ececec" stroke-width="1.51"/><path d="M2143,585L2105,721L2157,864Z" fill="#eaeaea" stroke="#eaeaea" stroke-width="1.51"/><path d="M2150,493L2143,585L2157,864Z" fill="#e8e8e8" stroke="#e8e8e8" stroke-width="1.51"/><path d="M2074,404L1938,452L2150,493Z" fill="#e0e0e0" stroke="#e0e0e0" stroke-width="1.51"/><path d="M1938,452L1977,618L2150,493Z" fill="#e1e1e1" stroke="#e1e1e1" stroke-width="1.51"/><path d="M1977,618L2143,585L2150,493Z" fill="#e4e4e4" stroke="#e4e4e4" stroke-width="1.51"/><path d="M1955,894L2037,1044L2133,989Z" fill="#f0f0f0" stroke="#f0f0f0" stroke-width="1.51"/><path d="M2068,197L1930,351L2074,404Z" fill="#dbdbdb" stroke="#dbdbdb" stroke-width="1.51"/><path d="M1920,56L2068,197L2109,25Z" fill="#d4d4d4" stroke="#d4d4d4" stroke-width="1.51"/><path d="M1928,225L1930,351L2068,197Z" fill="#d8d8d8" stroke="#d8d8d8" stroke-width="1.51"/><path d="M2061,-221L1976,-144L2094,-95Z" fill="#cdcdcd" stroke="#cdcdcd" stroke-width="1.51"/><path d="M1977,618L2037,746L2105,721Z" fill="#e7e7e7" stroke="#e7e7e7" stroke-width="1.51"/><path d="M1942,-27L1920,56L2109,25Z" fill="#d1d1d1" stroke="#d1d1d1" stroke-width="1.51"/><path d="M2094,-95L1942,-27L2109,25Z" fill="#d1d1d1" stroke="#d1d1d1" stroke-width="1.51"/><path d="M1976,-144L1942,-27L2094,-95Z" fill="#cecece" stroke="#cecece" stroke-width="1.51"/><path d="M2037,1044L1918,1110L2049,1196Z" fill="#f4f4f4" stroke="#f4f4f4" stroke-width="1.51"/><path d="M1920,56L1928,225L2068,197Z" fill="#d5d5d5" stroke="#d5d5d5" stroke-width="1.51"/><path d="M2049,1196L1927,1306L2075,1241Z" fill="#f8f8f8" stroke="#f8f8f8" stroke-width="1.51"/><path d="M1930,351L1938,452L2074,404Z" fill="#dddddd" stroke="#dddddd" stroke-width="1.51"/><path d="M1889,-228L1976,-144L2061,-221Z" fill="#cacaca" stroke="#cacaca" stroke-width="1.51"/><path d="M904,-266L1321,-223L1497,-268Z" fill="#b9b9b9" stroke="#b9b9b9" stroke-width="1.51"/><path d="M1918,1110L1927,1306L2049,1196Z" fill="#f6f6f6" stroke="#f6f6f6" stroke-width="1.51"/><path d="M1840,778L1955,894L2037,746Z" fill="#e8e8e8" stroke="#e8e8e8" stroke-width="1.51"/><path d="M1977,618L1870,648L2037,746Z" fill="#e5e5e5" stroke="#e5e5e5" stroke-width="1.51"/><path d="M1870,648L1840,778L2037,746Z" fill="#e5e5e5" stroke="#e5e5e5" stroke-width="1.51"/><path d="M1955,894L1918,1110L2037,1044Z" fill="#f0f0f0" stroke="#f0f0f0" stroke-width="1.51"/><path d="M1525,-266L1665,-192L1889,-228Z" fill="#c3c3c3" stroke="#c3c3c3" stroke-width="1.51"/><path d="M1918,1110L1881,1299L1927,1306Z" fill="#f6f6f6" stroke="#f6f6f6" stroke-width="1.51"/><path d="M1920,56L1856,87L1928,225Z" fill="#d2d2d2" stroke="#d2d2d2" stroke-width="1.51"/><path d="M1928,225L1894,261L1930,351Z" fill="#d8d8d8" stroke="#d8d8d8" stroke-width="1.51"/><path d="M1866,429L1870,648L1938,452Z" fill="#dedede" stroke="#dedede" stroke-width="1.51"/><path d="M1810,990L1918,1110L1955,894Z" fill="#eeeeee" stroke="#eeeeee" stroke-width="1.51"/><path d="M1773,-72L1942,-27L1976,-144Z" fill="#cccccc" stroke="#cccccc" stroke-width="1.51"/><path d="M1889,-228L1773,-72L1976,-144Z" fill="#c9c9c9" stroke="#c9c9c9" stroke-width="1.51"/><path d="M1938,452L1870,648L1977,618Z" fill="#e1e1e1" stroke="#e1e1e1" stroke-width="1.51"/><path d="M1777,1189L1881,1299L1918,1110Z" fill="#f3f3f3" stroke="#f3f3f3" stroke-width="1.51"/><path d="M1930,351L1866,429L1938,452Z" fill="#dcdcdc" stroke="#dcdcdc" stroke-width="1.51"/><path d="M1840,778L1787,833L1955,894Z" fill="#e8e8e8" stroke="#e8e8e8" stroke-width="1.51"/><path d="M1787,833L1810,990L1955,894Z" fill="#eaeaea" stroke="#eaeaea" stroke-width="1.51"/><path d="M1866,429L1719,544L1870,648Z" fill="#dedede" stroke="#dedede" stroke-width="1.51"/><path d="M1856,87L1920,56L1942,-27Z" fill="#cfcfcf" stroke="#cfcfcf" stroke-width="1.51"/><path d="M1773,-72L1856,87L1942,-27Z" fill="#cdcdcd" stroke="#cdcdcd" stroke-width="1.51"/><path d="M1856,87L1894,261L1928,225Z" fill="#d4d4d4" stroke="#d4d4d4" stroke-width="1.51"/><path d="M1856,87L1754,216L1894,261Z" fill="#d3d3d3" stroke="#d3d3d3" stroke-width="1.51"/><path d="M1894,261L1797,320L1930,351Z" fill="#d8d8d8" stroke="#d8d8d8" stroke-width="1.51"/><path d="M1797,320L1866,429L1930,351Z" fill="#d9d9d9" stroke="#d9d9d9" stroke-width="1.51"/><path d="M1810,990L1726,1103L1918,1110Z" fill="#eeeeee" stroke="#eeeeee" stroke-width="1.51"/><path d="M1726,1103L1777,1189L1918,1110Z" fill="#f0f0f0" stroke="#f0f0f0" stroke-width="1.51"/><path d="M1773,-72L1730,36L1856,87Z" fill="#cdcdcd" stroke="#cdcdcd" stroke-width="1.51"/><path d="M1665,-192L1773,-72L1889,-228Z" fill="#c7c7c7" stroke="#c7c7c7" stroke-width="1.51"/><path d="M1754,216L1797,320L1894,261Z" fill="#d5d5d5" stroke="#d5d5d5" stroke-width="1.51"/><path d="M1712,748L1840,778L1870,648Z" fill="#e3e3e3" stroke="#e3e3e3" stroke-width="1.51"/><path d="M1777,1189L1704,1313L1881,1299Z" fill="#f4f4f4" stroke="#f4f4f4" stroke-width="1.51"/><path d="M1719,544L1712,748L1870,648Z" fill="#e0e0e0" stroke="#e0e0e0" stroke-width="1.51"/><path d="M1797,320L1664,476L1866,429Z" fill="#d9d9d9" stroke="#d9d9d9" stroke-width="1.51"/><path d="M1664,476L1719,544L1866,429Z" fill="#dadada" stroke="#dadada" stroke-width="1.51"/><path d="M1730,36L1754,216L1856,87Z" fill="#d0d0d0" stroke="#d0d0d0" stroke-width="1.51"/><path d="M1665,-192L1695,-88L1773,-72Z" fill="#c7c7c7" stroke="#c7c7c7" stroke-width="1.51"/><path d="M1787,833L1700,836L1810,990Z" fill="#e7e7e7" stroke="#e7e7e7" stroke-width="1.51"/><path d="M1712,748L1787,833L1840,778Z" fill="#e4e4e4" stroke="#e4e4e4" stroke-width="1.51"/><path d="M1630,598L1712,748L1719,544Z" fill="#dddddd" stroke="#dddddd" stroke-width="1.51"/><path d="M1661,282L1664,476L1797,320Z" fill="#d6d6d6" stroke="#d6d6d6" stroke-width="1.51"/><path d="M1642,986L1726,1103L1810,990Z" fill="#ebebeb" stroke="#ebebeb" stroke-width="1.51"/><path d="M1700,836L1642,986L1810,990Z" fill="#e8e8e8" stroke="#e8e8e8" stroke-width="1.51"/><path d="M1712,748L1700,836L1787,833Z" fill="#e4e4e4" stroke="#e4e4e4" stroke-width="1.51"/><path d="M1754,216L1661,282L1797,320Z" fill="#d3d3d3" stroke="#d3d3d3" stroke-width="1.51"/><path d="M1695,-88L1730,36L1773,-72Z" fill="#cacaca" stroke="#cacaca" stroke-width="1.51"/><path d="M1730,36L1510,106L1754,216Z" fill="#cdcdcd" stroke="#cdcdcd" stroke-width="1.51"/><path d="M1726,1103L1575,1130L1777,1189Z" fill="#eeeeee" stroke="#eeeeee" stroke-width="1.51"/><path d="M1575,1130L1704,1313L1777,1189Z" fill="#f0f0f0" stroke="#f0f0f0" stroke-width="1.51"/><path d="M1575,1130L1545,1247L1704,1313Z" fill="#efefef" stroke="#efefef" stroke-width="1.51"/><path d="M1510,106L1661,282L1754,216Z" fill="#cfcfcf" stroke="#cfcfcf" stroke-width="1.51"/><path d="M1510,106L1502,225L1661,282Z" fill="#cecece" stroke="#cecece" stroke-width="1.51"/><path d="M1661,282L1581,302L1664,476Z" fill="#d4d4d4" stroke="#d4d4d4" stroke-width="1.51"/><path d="M1642,986L1575,1130L1726,1103Z" fill="#ebebeb" stroke="#ebebeb" stroke-width="1.51"/><path d="M1695,-88L1501,-14L1730,36Z" fill="#c9c9c9" stroke="#c9c9c9" stroke-width="1.51"/><path d="M1501,-14L1510,106L1730,36Z" fill="#cacaca" stroke="#cacaca" stroke-width="1.51"/><path d="M1598,973L1642,986L1700,836Z" fill="#e6e6e6" stroke="#e6e6e6" stroke-width="1.51"/><path d="M1630,598L1533,752L1712,748Z" fill="#dfdfdf" stroke="#dfdfdf" stroke-width="1.51"/><path d="M1664,476L1621,486L1719,544Z" fill="#d9d9d9" stroke="#d9d9d9" stroke-width="1.51"/><path d="M1621,486L1630,598L1719,544Z" fill="#dadada" stroke="#dadada" stroke-width="1.51"/><path d="M1581,302L1621,486L1664,476Z" fill="#d6d6d6" stroke="#d6d6d6" stroke-width="1.51"/><path d="M1545,1247L1465,1334L1704,1313Z" fill="#f0f0f0" stroke="#f0f0f0" stroke-width="1.51"/><path d="M1533,752L1700,836L1712,748Z" fill="#e2e2e2" stroke="#e2e2e2" stroke-width="1.51"/><path d="M1488,177L1502,225L1510,106Z" fill="#cbcbcb" stroke="#cbcbcb" stroke-width="1.51"/><path d="M1521,930L1598,973L1700,836Z" fill="#e5e5e5" stroke="#e5e5e5" stroke-width="1.51"/><path d="M1533,752L1521,930L1700,836Z" fill="#e2e2e2" stroke="#e2e2e2" stroke-width="1.51"/><path d="M1502,225L1581,302L1661,282Z" fill="#d0d0d0" stroke="#d0d0d0" stroke-width="1.51"/><path d="M1665,-192L1501,-14L1695,-88Z" fill="#c5c5c5" stroke="#c5c5c5" stroke-width="1.51"/><path d="M210,-243L435,-219L638,-233Z" fill="#a9a9a9" stroke="#a9a9a9" stroke-width="1.51"/><path d="M1598,973L1575,1130L1642,986Z" fill="#e9e9e9" stroke="#e9e9e9" stroke-width="1.51"/><path d="M1525,-266L1501,-14L1665,-192Z" fill="#c3c3c3" stroke="#c3c3c3" stroke-width="1.51"/><path d="M1473,794L1521,930L1533,752Z" fill="#e0e0e0" stroke="#e0e0e0" stroke-width="1.51"/><path d="M1581,302L1466,300L1621,486Z" fill="#d3d3d3" stroke="#d3d3d3" stroke-width="1.51"/><path d="M1466,300L1396,426L1621,486Z" fill="#d2d2d2" stroke="#d2d2d2" stroke-width="1.51"/><path d="M1326,1279L1083,1314L1465,1334Z" fill="#ebebeb" stroke="#ebebeb" stroke-width="1.51"/><path d="M1396,426L1373,627L1621,486Z" fill="#d5d5d5" stroke="#d5d5d5" stroke-width="1.51"/><path d="M1621,486L1373,627L1630,598Z" fill="#d9d9d9" stroke="#d9d9d9" stroke-width="1.51"/><path d="M1373,627L1533,752L1630,598Z" fill="#dbdbdb" stroke="#dbdbdb" stroke-width="1.51"/><path d="M1497,-268L1501,-14L1525,-266Z" fill="#c1c1c1" stroke="#c1c1c1" stroke-width="1.51"/><path d="M1521,930L1421,960L1575,1130Z" fill="#e6e6e6" stroke="#e6e6e6" stroke-width="1.51"/><path d="M1521,930L1575,1130L1598,973Z" fill="#e7e7e7" stroke="#e7e7e7" stroke-width="1.51"/><path d="M1497,-268L1370,-44L1501,-14Z" fill="#c2c2c2" stroke="#c2c2c2" stroke-width="1.51"/><path d="M1421,960L1416,1167L1575,1130Z" fill="#e7e7e7" stroke="#e7e7e7" stroke-width="1.51"/><path d="M1416,1167L1545,1247L1575,1130Z" fill="#ebebeb" stroke="#ebebeb" stroke-width="1.51"/><path d="M1502,225L1466,300L1581,302Z" fill="#cfcfcf" stroke="#cfcfcf" stroke-width="1.51"/><path d="M1337,587L1373,627L1396,426Z" fill="#d4d4d4" stroke="#d4d4d4" stroke-width="1.51"/><path d="M1321,-223L1370,-44L1497,-268Z" fill="#bfbfbf" stroke="#bfbfbf" stroke-width="1.51"/><path d="M1373,627L1473,794L1533,752Z" fill="#dcdcdc" stroke="#dcdcdc" stroke-width="1.51"/><path d="M1416,1167L1465,1334L1545,1247Z" fill="#ededed" stroke="#ededed" stroke-width="1.51"/><path d="M1473,794L1421,960L1521,930Z" fill="#e1e1e1" stroke="#e1e1e1" stroke-width="1.51"/><path d="M1381,939L1421,960L1473,794Z" fill="#e0e0e0" stroke="#e0e0e0" stroke-width="1.51"/><path d="M1501,-14L1401,134L1510,106Z" fill="#c8c8c8" stroke="#c8c8c8" stroke-width="1.51"/><path d="M904,-266L1209,-184L1321,-223Z" fill="#b8b8b8" stroke="#b8b8b8" stroke-width="1.51"/><path d="M1373,627L1348,782L1473,794Z" fill="#dbdbdb" stroke="#dbdbdb" stroke-width="1.51"/><path d="M1370,-44L1401,134L1501,-14Z" fill="#c6c6c6" stroke="#c6c6c6" stroke-width="1.51"/><path d="M1401,134L1488,177L1510,106Z" fill="#cacaca" stroke="#cacaca" stroke-width="1.51"/><path d="M1301,1085L1416,1167L1421,960Z" fill="#e5e5e5" stroke="#e5e5e5" stroke-width="1.51"/><path d="M1416,1167L1326,1279L1465,1334Z" fill="#ebebeb" stroke="#ebebeb" stroke-width="1.51"/><path d="M1488,177L1401,134L1502,225Z" fill="#cbcbcb" stroke="#cbcbcb" stroke-width="1.51"/><path d="M1401,134L1466,300L1502,225Z" fill="#cccccc" stroke="#cccccc" stroke-width="1.51"/><path d="M1401,134L1297,236L1466,300Z" fill="#cbcbcb" stroke="#cbcbcb" stroke-width="1.51"/><path d="M1321,830L1381,939L1473,794Z" fill="#dedede" stroke="#dedede" stroke-width="1.51"/><path d="M1348,782L1321,830L1473,794Z" fill="#dcdcdc" stroke="#dcdcdc" stroke-width="1.51"/><path d="M1316,987L1301,1085L1421,960Z" fill="#e2e2e2" stroke="#e2e2e2" stroke-width="1.51"/><path d="M1297,236L1396,426L1466,300Z" fill="#cecece" stroke="#cecece" stroke-width="1.51"/><path d="M1370,-44L1300,100L1401,134Z" fill="#c5c5c5" stroke="#c5c5c5" stroke-width="1.51"/><path d="M904,-266L992,-203L1209,-184Z" fill="#b6b6b6" stroke="#b6b6b6" stroke-width="1.51"/><path d="M1297,236L1235,329L1396,426Z" fill="#cccccc" stroke="#cccccc" stroke-width="1.51"/><path d="M1289,475L1337,587L1396,426Z" fill="#d2d2d2" stroke="#d2d2d2" stroke-width="1.51"/><path d="M1381,939L1316,987L1421,960Z" fill="#e1e1e1" stroke="#e1e1e1" stroke-width="1.51"/><path d="M1301,1085L1326,1279L1416,1167Z" fill="#e8e8e8" stroke="#e8e8e8" stroke-width="1.51"/><path d="M1321,-223L1254,-53L1370,-44Z" fill="#c0c0c0" stroke="#c0c0c0" stroke-width="1.51"/><path d="M1235,329L1289,475L1396,426Z" fill="#cfcfcf" stroke="#cfcfcf" stroke-width="1.51"/><path d="M1300,100L1297,236L1401,134Z" fill="#c7c7c7" stroke="#c7c7c7" stroke-width="1.51"/><path d="M1301,1085L1194,1202L1326,1279Z" fill="#e7e7e7" stroke="#e7e7e7" stroke-width="1.51"/><path d="M1337,587L1143,724L1348,782Z" fill="#d7d7d7" stroke="#d7d7d7" stroke-width="1.51"/><path d="M1254,-53L1300,100L1370,-44Z" fill="#c2c2c2" stroke="#c2c2c2" stroke-width="1.51"/><path d="M1337,587L1348,782L1373,627Z" fill="#d8d8d8" stroke="#d8d8d8" stroke-width="1.51"/><path d="M1321,830L1316,987L1381,939Z" fill="#dfdfdf" stroke="#dfdfdf" stroke-width="1.51"/><path d="M1209,-184L1254,-53L1321,-223Z" fill="#bdbdbd" stroke="#bdbdbd" stroke-width="1.51"/><path d="M1235,329L1207,365L1289,475Z" fill="#cdcdcd" stroke="#cdcdcd" stroke-width="1.51"/><path d="M1207,153L1297,236L1300,100Z" fill="#c7c7c7" stroke="#c7c7c7" stroke-width="1.51"/><path d="M1229,841L1316,987L1321,830Z" fill="#dddddd" stroke="#dddddd" stroke-width="1.51"/><path d="M1229,841L1321,830L1348,782Z" fill="#dbdbdb" stroke="#dbdbdb" stroke-width="1.51"/><path d="M1143,724L1229,841L1348,782Z" fill="#d9d9d9" stroke="#d9d9d9" stroke-width="1.51"/><path d="M1254,-53L1187,5L1300,100Z" fill="#c2c2c2" stroke="#c2c2c2" stroke-width="1.51"/><path d="M1289,475L1102,544L1337,587Z" fill="#d2d2d2" stroke="#d2d2d2" stroke-width="1.51"/><path d="M1102,544L1143,724L1337,587Z" fill="#d3d3d3" stroke="#d3d3d3" stroke-width="1.51"/><path d="M1194,1202L1083,1314L1326,1279Z" fill="#e8e8e8" stroke="#e8e8e8" stroke-width="1.51"/><path d="M1153,1047L1301,1085L1316,987Z" fill="#e1e1e1" stroke="#e1e1e1" stroke-width="1.51"/><path d="M1229,841L1153,1047L1316,987Z" fill="#dedede" stroke="#dedede" stroke-width="1.51"/><path d="M1090,967L1153,1047L1229,841Z" fill="#dddddd" stroke="#dddddd" stroke-width="1.51"/><path d="M1125,477L1102,544L1289,475Z" fill="#cfcfcf" stroke="#cfcfcf" stroke-width="1.51"/><path d="M1187,5L1207,153L1300,100Z" fill="#c3c3c3" stroke="#c3c3c3" stroke-width="1.51"/><path d="M1153,1047L1194,1202L1301,1085Z" fill="#e3e3e3" stroke="#e3e3e3" stroke-width="1.51"/><path d="M1207,153L1235,329L1297,236Z" fill="#c8c8c8" stroke="#c8c8c8" stroke-width="1.51"/><path d="M1207,365L1125,477L1289,475Z" fill="#cecece" stroke="#cecece" stroke-width="1.51"/><path d="M1111,1225L1083,1314L1194,1202Z" fill="#e5e5e5" stroke="#e5e5e5" stroke-width="1.51"/><path d="M1207,153L1039,165L1235,329Z" fill="#c6c6c6" stroke="#c6c6c6" stroke-width="1.51"/><path d="M1209,-184L1179,-32L1254,-53Z" fill="#bebebe" stroke="#bebebe" stroke-width="1.51"/><path d="M1179,-32L1187,5L1254,-53Z" fill="#bfbfbf" stroke="#bfbfbf" stroke-width="1.51"/><path d="M1039,165L1021,383L1207,365Z" fill="#c7c7c7" stroke="#c7c7c7" stroke-width="1.51"/><path d="M1039,165L1207,365L1235,329Z" fill="#c8c8c8" stroke="#c8c8c8" stroke-width="1.51"/><path d="M1143,724L1037,807L1229,841Z" fill="#d7d7d7" stroke="#d7d7d7" stroke-width="1.51"/><path d="M1037,807L1090,967L1229,841Z" fill="#d9d9d9" stroke="#d9d9d9" stroke-width="1.51"/><path d="M1102,544L1034,616L1143,724Z" fill="#d1d1d1" stroke="#d1d1d1" stroke-width="1.51"/><path d="M1038,1151L1111,1225L1153,1047Z" fill="#e2e2e2" stroke="#e2e2e2" stroke-width="1.51"/><path d="M992,-203L1011,-19L1179,-32Z" fill="#bbbbbb" stroke="#bbbbbb" stroke-width="1.51"/><path d="M1153,1047L1111,1225L1194,1202Z" fill="#e3e3e3" stroke="#e3e3e3" stroke-width="1.51"/><path d="M1187,5L1039,165L1207,153Z" fill="#c2c2c2" stroke="#c2c2c2" stroke-width="1.51"/><path d="M1048,424L1125,477L1207,365Z" fill="#cccccc" stroke="#cccccc" stroke-width="1.51"/><path d="M992,-203L1179,-32L1209,-184Z" fill="#bbbbbb" stroke="#bbbbbb" stroke-width="1.51"/><path d="M993,26L1039,165L1187,5Z" fill="#c0c0c0" stroke="#c0c0c0" stroke-width="1.51"/><path d="M1021,383L1048,424L1207,365Z" fill="#cacaca" stroke="#cacaca" stroke-width="1.51"/><path d="M1179,-32L1011,-19L1187,5Z" fill="#bebebe" stroke="#bebebe" stroke-width="1.51"/><path d="M1011,-19L993,26L1187,5Z" fill="#bdbdbd" stroke="#bdbdbd" stroke-width="1.51"/><path d="M835,1261L758,1300L1083,1314Z" fill="#e2e2e2" stroke="#e2e2e2" stroke-width="1.51"/><path d="M1090,967L1038,1151L1153,1047Z" fill="#dedede" stroke="#dedede" stroke-width="1.51"/><path d="M1034,616L1037,807L1143,724Z" fill="#d3d3d3" stroke="#d3d3d3" stroke-width="1.51"/><path d="M1034,616L956,762L1037,807Z" fill="#d3d3d3" stroke="#d3d3d3" stroke-width="1.51"/><path d="M1048,424L1102,544L1125,477Z" fill="#cccccc" stroke="#cccccc" stroke-width="1.51"/><path d="M1037,807L968,831L1090,967Z" fill="#d7d7d7" stroke="#d7d7d7" stroke-width="1.51"/><path d="M929,985L1038,1151L1090,967Z" fill="#dcdcdc" stroke="#dcdcdc" stroke-width="1.51"/><path d="M1038,1151L1083,1314L1111,1225Z" fill="#e4e4e4" stroke="#e4e4e4" stroke-width="1.51"/><path d="M936,373L1021,383L1039,165Z" fill="#c5c5c5" stroke="#c5c5c5" stroke-width="1.51"/><path d="M968,831L915,920L1090,967Z" fill="#d8d8d8" stroke="#d8d8d8" stroke-width="1.51"/><path d="M1048,424L1034,616L1102,544Z" fill="#cdcdcd" stroke="#cdcdcd" stroke-width="1.51"/><path d="M1038,1151L835,1261L1083,1314Z" fill="#e2e2e2" stroke="#e2e2e2" stroke-width="1.51"/><path d="M915,920L929,985L1090,967Z" fill="#d9d9d9" stroke="#d9d9d9" stroke-width="1.51"/><path d="M927,655L956,762L1034,616Z" fill="#d0d0d0" stroke="#d0d0d0" stroke-width="1.51"/><path d="M853,443L1034,616L1048,424Z" fill="#cbcbcb" stroke="#cbcbcb" stroke-width="1.51"/><path d="M992,-203L870,-100L1011,-19Z" fill="#b8b8b8" stroke="#b8b8b8" stroke-width="1.51"/><path d="M853,443L927,655L1034,616Z" fill="#cccccc" stroke="#cccccc" stroke-width="1.51"/><path d="M929,985L878,1119L1038,1151Z" fill="#dcdcdc" stroke="#dcdcdc" stroke-width="1.51"/><path d="M878,1119L835,1261L1038,1151Z" fill="#dfdfdf" stroke="#dfdfdf" stroke-width="1.51"/><path d="M993,26L938,68L1039,165Z" fill="#bebebe" stroke="#bebebe" stroke-width="1.51"/><path d="M887,162L936,373L1039,165Z" fill="#c2c2c2" stroke="#c2c2c2" stroke-width="1.51"/><path d="M1021,383L936,373L1048,424Z" fill="#c8c8c8" stroke="#c8c8c8" stroke-width="1.51"/><path d="M936,373L853,443L1048,424Z" fill="#c7c7c7" stroke="#c7c7c7" stroke-width="1.51"/><path d="M956,762L968,831L1037,807Z" fill="#d4d4d4" stroke="#d4d4d4" stroke-width="1.51"/><path d="M938,68L887,162L1039,165Z" fill="#bfbfbf" stroke="#bfbfbf" stroke-width="1.51"/><path d="M870,-100L993,26L1011,-19Z" fill="#bababa" stroke="#bababa" stroke-width="1.51"/><path d="M853,443L814,636L927,655Z" fill="#cbcbcb" stroke="#cbcbcb" stroke-width="1.51"/><path d="M887,162L817,199L936,373Z" fill="#c1c1c1" stroke="#c1c1c1" stroke-width="1.51"/><path d="M904,-266L870,-100L992,-203Z" fill="#b5b5b5" stroke="#b5b5b5" stroke-width="1.51"/><path d="M870,-100L938,68L993,26Z" fill="#bbbbbb" stroke="#bbbbbb" stroke-width="1.51"/><path d="M956,762L915,920L968,831Z" fill="#d4d4d4" stroke="#d4d4d4" stroke-width="1.51"/><path d="M753,712L748,932L915,920Z" fill="#d2d2d2" stroke="#d2d2d2" stroke-width="1.51"/><path d="M822,1000L878,1119L929,985Z" fill="#d9d9d9" stroke="#d9d9d9" stroke-width="1.51"/><path d="M870,-100L764,39L938,68Z" fill="#b9b9b9" stroke="#b9b9b9" stroke-width="1.51"/><path d="M753,712L915,920L956,762Z" fill="#d2d2d2" stroke="#d2d2d2" stroke-width="1.51"/><path d="M927,655L814,636L956,762Z" fill="#cfcfcf" stroke="#cfcfcf" stroke-width="1.51"/><path d="M814,636L753,712L956,762Z" fill="#cecece" stroke="#cecece" stroke-width="1.51"/><path d="M794,463L814,636L853,443Z" fill="#c8c8c8" stroke="#c8c8c8" stroke-width="1.51"/><path d="M746,373L853,443L936,373Z" fill="#c5c5c5" stroke="#c5c5c5" stroke-width="1.51"/><path d="M817,199L746,373L936,373Z" fill="#c2c2c2" stroke="#c2c2c2" stroke-width="1.51"/><path d="M764,39L887,162L938,68Z" fill="#bcbcbc" stroke="#bcbcbc" stroke-width="1.51"/><path d="M739,-151L870,-100L904,-266Z" fill="#b4b4b4" stroke="#b4b4b4" stroke-width="1.51"/><path d="M915,920L822,1000L929,985Z" fill="#d8d8d8" stroke="#d8d8d8" stroke-width="1.51"/><path d="M748,932L822,1000L915,920Z" fill="#d6d6d6" stroke="#d6d6d6" stroke-width="1.51"/><path d="M638,-233L739,-151L904,-266Z" fill="#b1b1b1" stroke="#b1b1b1" stroke-width="1.51"/><path d="M716,-80L764,39L870,-100Z" fill="#b6b6b6" stroke="#b6b6b6" stroke-width="1.51"/><path d="M684,1173L835,1261L878,1119Z" fill="#dcdcdc" stroke="#dcdcdc" stroke-width="1.51"/><path d="M692,1121L684,1173L878,1119Z" fill="#dadada" stroke="#dadada" stroke-width="1.51"/><path d="M764,39L817,199L887,162Z" fill="#bcbcbc" stroke="#bcbcbc" stroke-width="1.51"/><path d="M822,1000L692,1121L878,1119Z" fill="#d9d9d9" stroke="#d9d9d9" stroke-width="1.51"/><path d="M746,373L794,463L853,443Z" fill="#c5c5c5" stroke="#c5c5c5" stroke-width="1.51"/><path d="M739,-151L716,-80L870,-100Z" fill="#b4b4b4" stroke="#b4b4b4" stroke-width="1.51"/><path d="M561,1237L396,1310L758,1300Z" fill="#dbdbdb" stroke="#dbdbdb" stroke-width="1.51"/><path d="M663,291L746,373L817,199Z" fill="#bfbfbf" stroke="#bfbfbf" stroke-width="1.51"/><path d="M794,463L624,609L814,636Z" fill="#c8c8c8" stroke="#c8c8c8" stroke-width="1.51"/><path d="M684,1173L758,1300L835,1261Z" fill="#dedede" stroke="#dedede" stroke-width="1.51"/><path d="M596,878L748,932L753,712Z" fill="#d0d0d0" stroke="#d0d0d0" stroke-width="1.51"/><path d="M764,39L568,206L817,199Z" fill="#bbbbbb" stroke="#bbbbbb" stroke-width="1.51"/><path d="M748,932L692,1121L822,1000Z" fill="#d6d6d6" stroke="#d6d6d6" stroke-width="1.51"/><path d="M489,1251L396,1310L561,1237Z" fill="#d9d9d9" stroke="#d9d9d9" stroke-width="1.51"/><path d="M568,206L663,291L817,199Z" fill="#bcbcbc" stroke="#bcbcbc" stroke-width="1.51"/><path d="M624,609L753,712L814,636Z" fill="#cacaca" stroke="#cacaca" stroke-width="1.51"/><path d="M746,373L685,411L794,463Z" fill="#c3c3c3" stroke="#c3c3c3" stroke-width="1.51"/><path d="M685,411L624,609L794,463Z" fill="#c5c5c5" stroke="#c5c5c5" stroke-width="1.51"/><path d="M596,968L692,1121L748,932Z" fill="#d4d4d4" stroke="#d4d4d4" stroke-width="1.51"/><path d="M562,689L596,878L753,712Z" fill="#cccccc" stroke="#cccccc" stroke-width="1.51"/><path d="M611,3L568,206L764,39Z" fill="#b7b7b7" stroke="#b7b7b7" stroke-width="1.51"/><path d="M716,-80L611,3L764,39Z" fill="#b5b5b5" stroke="#b5b5b5" stroke-width="1.51"/><path d="M684,1173L561,1237L758,1300Z" fill="#dcdcdc" stroke="#dcdcdc" stroke-width="1.51"/><path d="M624,609L562,689L753,712Z" fill="#c9c9c9" stroke="#c9c9c9" stroke-width="1.51"/><path d="M663,291L685,411L746,373Z" fill="#c1c1c1" stroke="#c1c1c1" stroke-width="1.51"/><path d="M596,878L596,968L748,932Z" fill="#d1d1d1" stroke="#d1d1d1" stroke-width="1.51"/><path d="M638,-233L716,-80L739,-151Z" fill="#b1b1b1" stroke="#b1b1b1" stroke-width="1.51"/><path d="M516,563L624,609L685,411Z" fill="#c4c4c4" stroke="#c4c4c4" stroke-width="1.51"/><path d="M596,968L553,1028L692,1121Z" fill="#d4d4d4" stroke="#d4d4d4" stroke-width="1.51"/><path d="M638,-233L556,-71L716,-80Z" fill="#b1b1b1" stroke="#b1b1b1" stroke-width="1.51"/><path d="M556,-71L611,3L716,-80Z" fill="#b3b3b3" stroke="#b3b3b3" stroke-width="1.51"/><path d="M663,291L481,332L685,411Z" fill="#bfbfbf" stroke="#bfbfbf" stroke-width="1.51"/><path d="M515,1188L684,1173L692,1121Z" fill="#d8d8d8" stroke="#d8d8d8" stroke-width="1.51"/><path d="M553,1028L515,1188L692,1121Z" fill="#d6d6d6" stroke="#d6d6d6" stroke-width="1.51"/><path d="M515,1188L561,1237L684,1173Z" fill="#d9d9d9" stroke="#d9d9d9" stroke-width="1.51"/><path d="M481,332L516,563L685,411Z" fill="#c0c0c0" stroke="#c0c0c0" stroke-width="1.51"/><path d="M531,11L568,206L611,3Z" fill="#b5b5b5" stroke="#b5b5b5" stroke-width="1.51"/><path d="M562,689L478,749L596,878Z" fill="#cacaca" stroke="#cacaca" stroke-width="1.51"/><path d="M568,206L481,332L663,291Z" fill="#bcbcbc" stroke="#bcbcbc" stroke-width="1.51"/><path d="M-197,-242L9,-210L210,-243Z" fill="#a1a1a1" stroke="#a1a1a1" stroke-width="1.51"/><path d="M481,332L420,479L516,563Z" fill="#bfbfbf" stroke="#bfbfbf" stroke-width="1.51"/><path d="M444,-127L556,-71L638,-233Z" fill="#aeaeae" stroke="#aeaeae" stroke-width="1.51"/><path d="M435,-219L444,-127L638,-233Z" fill="#acacac" stroke="#acacac" stroke-width="1.51"/><path d="M51,1254L-42,1285L396,1310Z" fill="#d2d2d2" stroke="#d2d2d2" stroke-width="1.51"/><path d="M531,11L482,203L568,206Z" fill="#b6b6b6" stroke="#b6b6b6" stroke-width="1.51"/><path d="M516,563L562,689L624,609Z" fill="#c6c6c6" stroke="#c6c6c6" stroke-width="1.51"/><path d="M556,-71L531,11L611,3Z" fill="#b3b3b3" stroke="#b3b3b3" stroke-width="1.51"/><path d="M482,203L481,332L568,206Z" fill="#b9b9b9" stroke="#b9b9b9" stroke-width="1.51"/><path d="M478,749L460,906L596,878Z" fill="#cccccc" stroke="#cccccc" stroke-width="1.51"/><path d="M596,878L460,906L596,968Z" fill="#cfcfcf" stroke="#cfcfcf" stroke-width="1.51"/><path d="M460,906L553,1028L596,968Z" fill="#d1d1d1" stroke="#d1d1d1" stroke-width="1.51"/><path d="M343,1099L515,1188L553,1028Z" fill="#d3d3d3" stroke="#d3d3d3" stroke-width="1.51"/><path d="M516,563L404,670L562,689Z" fill="#c5c5c5" stroke="#c5c5c5" stroke-width="1.51"/><path d="M515,1188L489,1251L561,1237Z" fill="#d8d8d8" stroke="#d8d8d8" stroke-width="1.51"/><path d="M404,670L478,749L562,689Z" fill="#c7c7c7" stroke="#c7c7c7" stroke-width="1.51"/><path d="M444,-127L531,11L556,-71Z" fill="#b0b0b0" stroke="#b0b0b0" stroke-width="1.51"/><path d="M330,3L482,203L531,11Z" fill="#b3b3b3" stroke="#b3b3b3" stroke-width="1.51"/><path d="M381,931L346,964L553,1028Z" fill="#cecece" stroke="#cecece" stroke-width="1.51"/><path d="M346,964L343,1099L553,1028Z" fill="#d0d0d0" stroke="#d0d0d0" stroke-width="1.51"/><path d="M460,906L381,931L553,1028Z" fill="#cfcfcf" stroke="#cfcfcf" stroke-width="1.51"/><path d="M354,-35L330,3L531,11Z" fill="#b0b0b0" stroke="#b0b0b0" stroke-width="1.51"/><path d="M444,-127L354,-35L531,11Z" fill="#afafaf" stroke="#afafaf" stroke-width="1.51"/><path d="M360,766L460,906L478,749Z" fill="#c9c9c9" stroke="#c9c9c9" stroke-width="1.51"/><path d="M330,3L370,232L482,203Z" fill="#b4b4b4" stroke="#b4b4b4" stroke-width="1.51"/><path d="M370,232L481,332L482,203Z" fill="#b8b8b8" stroke="#b8b8b8" stroke-width="1.51"/><path d="M420,479L395,495L516,563Z" fill="#c0c0c0" stroke="#c0c0c0" stroke-width="1.51"/><path d="M395,495L404,670L516,563Z" fill="#c2c2c2" stroke="#c2c2c2" stroke-width="1.51"/><path d="M343,1099L489,1251L515,1188Z" fill="#d5d5d5" stroke="#d5d5d5" stroke-width="1.51"/><path d="M308,355L420,479L481,332Z" fill="#bcbcbc" stroke="#bcbcbc" stroke-width="1.51"/><path d="M343,1099L396,1310L489,1251Z" fill="#d6d6d6" stroke="#d6d6d6" stroke-width="1.51"/><path d="M203,1223L51,1254L396,1310Z" fill="#d3d3d3" stroke="#d3d3d3" stroke-width="1.51"/><path d="M360,766L381,931L460,906Z" fill="#cacaca" stroke="#cacaca" stroke-width="1.51"/><path d="M370,232L308,355L481,332Z" fill="#b9b9b9" stroke="#b9b9b9" stroke-width="1.51"/><path d="M404,670L360,766L478,749Z" fill="#c7c7c7" stroke="#c7c7c7" stroke-width="1.51"/><path d="M210,-243L343,-169L435,-219Z" fill="#a8a8a8" stroke="#a8a8a8" stroke-width="1.51"/><path d="M435,-219L343,-169L444,-127Z" fill="#ababab" stroke="#ababab" stroke-width="1.51"/><path d="M360,766L281,843L381,931Z" fill="#c9c9c9" stroke="#c9c9c9" stroke-width="1.51"/><path d="M395,495L252,608L404,670Z" fill="#c1c1c1" stroke="#c1c1c1" stroke-width="1.51"/><path d="M308,355L395,495L420,479Z" fill="#bdbdbd" stroke="#bdbdbd" stroke-width="1.51"/><path d="M343,-169L354,-35L444,-127Z" fill="#acacac" stroke="#acacac" stroke-width="1.51"/><path d="M330,3L261,226L370,232Z" fill="#b3b3b3" stroke="#b3b3b3" stroke-width="1.51"/><path d="M343,1099L203,1223L396,1310Z" fill="#d3d3d3" stroke="#d3d3d3" stroke-width="1.51"/><path d="M260,502L252,608L395,495Z" fill="#bebebe" stroke="#bebebe" stroke-width="1.51"/><path d="M308,355L260,502L395,495Z" fill="#bcbcbc" stroke="#bcbcbc" stroke-width="1.51"/><path d="M254,736L360,766L404,670Z" fill="#c5c5c5" stroke="#c5c5c5" stroke-width="1.51"/><path d="M252,608L254,736L404,670Z" fill="#c2c2c2" stroke="#c2c2c2" stroke-width="1.51"/><path d="M197,13L261,226L330,3Z" fill="#b0b0b0" stroke="#b0b0b0" stroke-width="1.51"/><path d="M343,-169L254,-120L354,-35Z" fill="#ababab" stroke="#ababab" stroke-width="1.51"/><path d="M261,226L308,355L370,232Z" fill="#b6b6b6" stroke="#b6b6b6" stroke-width="1.51"/><path d="M281,843L346,964L381,931Z" fill="#cacaca" stroke="#cacaca" stroke-width="1.51"/><path d="M221,965L343,1099L346,964Z" fill="#cdcdcd" stroke="#cdcdcd" stroke-width="1.51"/><path d="M254,736L281,843L360,766Z" fill="#c6c6c6" stroke="#c6c6c6" stroke-width="1.51"/><path d="M172,1171L203,1223L343,1099Z" fill="#d0d0d0" stroke="#d0d0d0" stroke-width="1.51"/><path d="M281,843L221,965L346,964Z" fill="#cacaca" stroke="#cacaca" stroke-width="1.51"/><path d="M254,-120L330,3L354,-35Z" fill="#adadad" stroke="#adadad" stroke-width="1.51"/><path d="M210,-243L254,-120L343,-169Z" fill="#a8a8a8" stroke="#a8a8a8" stroke-width="1.51"/><path d="M221,965L172,1171L343,1099Z" fill="#cecece" stroke="#cecece" stroke-width="1.51"/><path d="M163,396L260,502L308,355Z" fill="#b9b9b9" stroke="#b9b9b9" stroke-width="1.51"/><path d="M254,-120L197,13L330,3Z" fill="#acacac" stroke="#acacac" stroke-width="1.51"/><path d="M261,226L163,396L308,355Z" fill="#b7b7b7" stroke="#b7b7b7" stroke-width="1.51"/><path d="M197,13L31,186L261,226Z" fill="#b0b0b0" stroke="#b0b0b0" stroke-width="1.51"/><path d="M254,736L19,857L281,843Z" fill="#c4c4c4" stroke="#c4c4c4" stroke-width="1.51"/><path d="M19,857L221,965L281,843Z" fill="#c7c7c7" stroke="#c7c7c7" stroke-width="1.51"/><path d="M19,857L67,969L221,965Z" fill="#c6c6c6" stroke="#c6c6c6" stroke-width="1.51"/><path d="M67,969L172,1171L221,965Z" fill="#cbcbcb" stroke="#cbcbcb" stroke-width="1.51"/><path d="M81,625L78,691L252,608Z" fill="#bebebe" stroke="#bebebe" stroke-width="1.51"/><path d="M78,691L19,857L254,736Z" fill="#c2c2c2" stroke="#c2c2c2" stroke-width="1.51"/><path d="M252,608L78,691L254,736Z" fill="#c0c0c0" stroke="#c0c0c0" stroke-width="1.51"/><path d="M210,-243L147,-195L254,-120Z" fill="#a6a6a6" stroke="#a6a6a6" stroke-width="1.51"/><path d="M81,625L252,608L260,502Z" fill="#bdbdbd" stroke="#bdbdbd" stroke-width="1.51"/><path d="M23,311L163,396L261,226Z" fill="#b4b4b4" stroke="#b4b4b4" stroke-width="1.51"/><path d="M31,186L23,311L261,226Z" fill="#b1b1b1" stroke="#b1b1b1" stroke-width="1.51"/><path d="M163,396L52,431L260,502Z" fill="#b8b8b8" stroke="#b8b8b8" stroke-width="1.51"/><path d="M52,431L81,625L260,502Z" fill="#bababa" stroke="#bababa" stroke-width="1.51"/><path d="M147,-195L197,13L254,-120Z" fill="#a9a9a9" stroke="#a9a9a9" stroke-width="1.51"/><path d="M147,-195L24,-90L197,13Z" fill="#a8a8a8" stroke="#a8a8a8" stroke-width="1.51"/><path d="M29,16L31,186L197,13Z" fill="#ababab" stroke="#ababab" stroke-width="1.51"/><path d="M9,-210L147,-195L210,-243Z" fill="#a4a4a4" stroke="#a4a4a4" stroke-width="1.51"/><path d="M24,-90L29,16L197,13Z" fill="#a9a9a9" stroke="#a9a9a9" stroke-width="1.51"/><path d="M67,969L-24,1050L172,1171Z" fill="#cacaca" stroke="#cacaca" stroke-width="1.51"/><path d="M-24,1050L29,1194L172,1171Z" fill="#cbcbcb" stroke="#cbcbcb" stroke-width="1.51"/><path d="M172,1171L51,1254L203,1223Z" fill="#d0d0d0" stroke="#d0d0d0" stroke-width="1.51"/><path d="M23,311L52,431L163,396Z" fill="#b5b5b5" stroke="#b5b5b5" stroke-width="1.51"/><path d="M29,1194L51,1254L172,1171Z" fill="#cecece" stroke="#cecece" stroke-width="1.51"/><path d="M9,-210L24,-90L147,-195Z" fill="#a4a4a4" stroke="#a4a4a4" stroke-width="1.51"/><path d="M29,16L-29,55L31,186Z" fill="#aaaaaa" stroke="#aaaaaa" stroke-width="1.51"/><path d="M-29,55L-42,155L31,186Z" fill="#acacac" stroke="#acacac" stroke-width="1.51"/><path d="M-10,835L19,857L78,691Z" fill="#c1c1c1" stroke="#c1c1c1" stroke-width="1.51"/><path d="M-41,762L-10,835L78,691Z" fill="#bfbfbf" stroke="#bfbfbf" stroke-width="1.51"/><path d="M-52,565L-41,762L78,691Z" fill="#bcbcbc" stroke="#bcbcbc" stroke-width="1.51"/><path d="M-52,565L78,691L81,625Z" fill="#bbbbbb" stroke="#bbbbbb" stroke-width="1.51"/><path d="M52,431L-52,565L81,625Z" fill="#b9b9b9" stroke="#b9b9b9" stroke-width="1.51"/><path d="M29,1194L13,1207L51,1254Z" fill="#cecece" stroke="#cecece" stroke-width="1.51"/><path d="M19,857L-24,1050L67,969Z" fill="#c6c6c6" stroke="#c6c6c6" stroke-width="1.51"/><path d="M-10,835L-24,1050L19,857Z" fill="#c4c4c4" stroke="#c4c4c4" stroke-width="1.51"/><path d="M-24,1050L13,1207L29,1194Z" fill="#cbcbcb" stroke="#cbcbcb" stroke-width="1.51"/><path d="M-75,270L23,311L31,186Z" fill="#afafaf" stroke="#afafaf" stroke-width="1.51"/><path d="M23,311L-99,407L52,431Z" fill="#b3b3b3" stroke="#b3b3b3" stroke-width="1.51"/><path d="M-99,407L-52,565L52,431Z" fill="#b5b5b5" stroke="#b5b5b5" stroke-width="1.51"/><path d="M24,-90L-84,-40L29,16Z" fill="#a7a7a7" stroke="#a7a7a7" stroke-width="1.51"/><path d="M13,1207L-42,1285L51,1254Z" fill="#cecece" stroke="#cecece" stroke-width="1.51"/><path d="M-142,620L-147,690L-52,565Z" fill="#b9b9b9" stroke="#b9b9b9" stroke-width="1.51"/><path d="M-52,565L-147,690L-41,762Z" fill="#bbbbbb" stroke="#bbbbbb" stroke-width="1.51"/><path d="M-154,816L-24,1050L-10,835Z" fill="#c2c2c2" stroke="#c2c2c2" stroke-width="1.51"/><path d="M9,-210L-84,-40L24,-90Z" fill="#a4a4a4" stroke="#a4a4a4" stroke-width="1.51"/><path d="M-84,-40L-29,55L29,16Z" fill="#a8a8a8" stroke="#a8a8a8" stroke-width="1.51"/><path d="M-42,155L-75,270L31,186Z" fill="#adadad" stroke="#adadad" stroke-width="1.51"/><path d="M-75,270L-99,407L23,311Z" fill="#b1b1b1" stroke="#b1b1b1" stroke-width="1.51"/><path d="M-24,1050L-213,1111L13,1207Z" fill="#c8c8c8" stroke="#c8c8c8" stroke-width="1.51"/><path d="M-197,-242L-84,-40L9,-210Z" fill="#a1a1a1" stroke="#a1a1a1" stroke-width="1.51"/><path d="M-213,1111L-42,1285L13,1207Z" fill="#cbcbcb" stroke="#cbcbcb" stroke-width="1.51"/><path d="M-213,1111L-224,1265L-42,1285Z" fill="#cacaca" stroke="#cacaca" stroke-width="1.51"/><path d="M-154,816L-223,1073L-24,1050Z" fill="#c3c3c3" stroke="#c3c3c3" stroke-width="1.51"/><path d="M-41,762L-154,816L-10,835Z" fill="#bfbfbf" stroke="#bfbfbf" stroke-width="1.51"/><path d="M-175,0L-42,155L-29,55Z" fill="#a8a8a8" stroke="#a8a8a8" stroke-width="1.51"/><path d="M-223,1073L-213,1111L-24,1050Z" fill="#c6c6c6" stroke="#c6c6c6" stroke-width="1.51"/><path d="M-84,-40L-175,0L-29,55Z" fill="#a6a6a6" stroke="#a6a6a6" stroke-width="1.51"/><path d="M-176,380L-99,407L-75,270Z" fill="#b0b0b0" stroke="#b0b0b0" stroke-width="1.51"/><path d="M-99,407L-241,533L-52,565Z" fill="#b4b4b4" stroke="#b4b4b4" stroke-width="1.51"/><path d="M-230,245L-75,270L-42,155Z" fill="#acacac" stroke="#acacac" stroke-width="1.51"/><path d="M-175,0L-230,245L-42,155Z" fill="#a9a9a9" stroke="#a9a9a9" stroke-width="1.51"/><path d="M-147,690L-154,816L-41,762Z" fill="#bdbdbd" stroke="#bdbdbd" stroke-width="1.51"/><path d="M-241,533L-142,620L-52,565Z" fill="#b6b6b6" stroke="#b6b6b6" stroke-width="1.51"/><path d="M-197,-242L-243,-27L-84,-40Z" fill="#a1a1a1" stroke="#a1a1a1" stroke-width="1.51"/><path d="M-176,380L-241,533L-99,407Z" fill="#b2b2b2" stroke="#b2b2b2" stroke-width="1.51"/><path d="M-243,-27L-175,0L-84,-40Z" fill="#a4a4a4" stroke="#a4a4a4" stroke-width="1.51"/><path d="M-230,245L-176,380L-75,270Z" fill="#aeaeae" stroke="#aeaeae" stroke-width="1.51"/><path d="M-243,-27L-230,245L-175,0Z" fill="#a6a6a6" stroke="#a6a6a6" stroke-width="1.51"/><path d="M-241,533L-147,690L-142,620Z" fill="#b7b7b7" stroke="#b7b7b7" stroke-width="1.51"/><path d="M-241,533L-154,816L-147,690Z" fill="#b9b9b9" stroke="#b9b9b9" stroke-width="1.51"/><path d="M-241,533L-223,1073L-154,816Z" fill="#bcbcbc" stroke="#bcbcbc" stroke-width="1.51"/><path d="M-230,245L-241,533L-176,380Z" fill="#afafaf" stroke="#afafaf" stroke-width="1.51"/><path d="M-223,1073L-224,1265L-213,1111Z" fill="#c6c6c6" stroke="#c6c6c6" stroke-width="1.51"/><path d="M-241,533L-224,1265L-223,1073Z" fill="#c0c0c0" stroke="#c0c0c0" stroke-width="1.51"/><path d="M-243,-27L-241,533L-230,245Z" fill="#ababab" stroke="#ababab" stroke-width="1.51"/></svg>