<svg xmlns="http://www.w3.org/2000/svg" width="3840" height="2160"><path d="M397,2785L-526,2770L988,2806Z" fill="#a5a5a5" stroke="#a5a5a5" stroke-width="1.51"/><path d="M2095,2694L988,2806L2785,2697Z" fill="#e6e6e6" stroke="#e6e6e6" stroke-width="1.51"/><path d="M1632,-651L2321,-574L3574,-646Z" fill="#767676" stroke="#767676" stroke-width="1.51"/><path d="M2785,2697L988,2806L4051,2690Z" fill="#f9f9f9" stroke="#f9f9f9" stroke-width="1.51"/><path d="M3683,2592L2785,2697L4051,2690Z" fill="#ffffff" stroke="#ffffff" stroke-width="1.51"/><path d="M993,-647L1632,-651L4089,-688Z" fill="#6c6c6c" stroke="#6c6c6c" stroke-width="1.51"/><path d="M1632,-651L3574,-646L4089,-688Z" fill="#7b7b7b" stroke="#7b7b7b" stroke-width="1.51"/><path d="M4165,-443L4149,-3L4305,239Z" fill="#a4a4a4" stroke="#a4a4a4" stroke-width="1.51"/><path d="M4305,239L3935,705L4329,823Z" fill="#d1d1d1" stroke="#d1d1d1" stroke-width="1.51"/><path d="M4258,911L4293,1439L4329,823Z" fill="#e4e4e4" stroke="#e4e4e4" stroke-width="1.51"/><path d="M4293,1439L3905,1535L4381,1981Z" fill="#fefefe" stroke="#fefefe" stroke-width="1.51"/><path d="M4305,239L4329,823L4482,2203Z" fill="#e6e6e6" stroke="#e6e6e6" stroke-width="1.51"/><path d="M4381,1981L4078,2208L4482,2203Z" fill="#ffffff" stroke="#ffffff" stroke-width="1.51"/><path d="M4078,2208L4150,2635L4482,2203Z" fill="#ffffff" stroke="#ffffff" stroke-width="1.51"/><path d="M4293,1439L4381,1981L4482,2203Z" fill="#ffffff" stroke="#ffffff" stroke-width="1.51"/><path d="M4329,823L4293,1439L4482,2203Z" fill="#f6f6f6" stroke="#f6f6f6" stroke-width="1.51"/><path d="M4258,911L3942,966L4293,1439Z" fill="#e6e6e6" stroke="#e6e6e6" stroke-width="1.51"/><path d="M3764,1956L4078,2208L4381,1981Z" fill="#ffffff" stroke="#ffffff" stroke-width="1.51"/><path d="M3905,1535L3764,1956L4381,1981Z" fill="#ffffff" stroke="#ffffff" stroke-width="1.51"/><path d="M3942,966L3905,1535L4293,1439Z" fill="#efefef" stroke="#efefef" stroke-width="1.51"/><path d="M3851,198L3935,705L4305,239Z" fill="#c4c4c4" stroke="#c4c4c4" stroke-width="1.51"/><path d="M3935,705L4258,911L4329,823Z" fill="#dadada" stroke="#dadada" stroke-width="1.51"/><path d="M3860,-144L4149,-3L4165,-443Z" fill="#9b9b9b" stroke="#9b9b9b" stroke-width="1.51"/><path d="M4149,-3L3851,198L4305,239Z" fill="#b3b3b3" stroke="#b3b3b3" stroke-width="1.51"/><path d="M3935,705L3942,966L4258,911Z" fill="#dcdcdc" stroke="#dcdcdc" stroke-width="1.51"/><path d="M2321,-574L2890,-449L3574,-646Z" fill="#828282" stroke="#828282" stroke-width="1.51"/><path d="M3683,2592L4051,2690L4078,2208Z" fill="#ffffff" stroke="#ffffff" stroke-width="1.51"/><path d="M4078,2208L4051,2690L4150,2635Z" fill="#ffffff" stroke="#ffffff" stroke-width="1.51"/><path d="M4089,-688L3574,-646L4165,-443Z" fill="#7f7f7f" stroke="#7f7f7f" stroke-width="1.51"/><path d="M3574,-646L3860,-144L4165,-443Z" fill="#8c8c8c" stroke="#8c8c8c" stroke-width="1.51"/><path d="M3860,-144L3851,198L4149,-3Z" fill="#aaaaaa" stroke="#aaaaaa" stroke-width="1.51"/><path d="M3851,198L3662,668L3935,705Z" fill="#cdcdcd" stroke="#cdcdcd" stroke-width="1.51"/><path d="M3546,1183L3905,1535L3942,966Z" fill="#ebebeb" stroke="#ebebeb" stroke-width="1.51"/><path d="M3764,1956L3683,2592L4078,2208Z" fill="#ffffff" stroke="#ffffff" stroke-width="1.51"/><path d="M3383,2418L3683,2592L3764,1956Z" fill="#ffffff" stroke="#ffffff" stroke-width="1.51"/><path d="M3502,392L3662,668L3851,198Z" fill="#c7c7c7" stroke="#c7c7c7" stroke-width="1.51"/><path d="M3577,-32L3851,198L3860,-144Z" fill="#a9a9a9" stroke="#a9a9a9" stroke-width="1.51"/><path d="M3573,1560L3764,1956L3905,1535Z" fill="#ffffff" stroke="#ffffff" stroke-width="1.51"/><path d="M3546,1183L3573,1560L3905,1535Z" fill="#f4f4f4" stroke="#f4f4f4" stroke-width="1.51"/><path d="M3935,705L3662,668L3942,966Z" fill="#d8d8d8" stroke="#d8d8d8" stroke-width="1.51"/><path d="M3662,668L3546,1183L3942,966Z" fill="#dfdfdf" stroke="#dfdfdf" stroke-width="1.51"/><path d="M3574,-646L3577,-32L3860,-144Z" fill="#969696" stroke="#969696" stroke-width="1.51"/><path d="M2957,2537L2785,2697L3683,2592Z" fill="#ffffff" stroke="#ffffff" stroke-width="1.51"/><path d="M3577,-32L3502,392L3851,198Z" fill="#b6b6b6" stroke="#b6b6b6" stroke-width="1.51"/><path d="M3574,-646L3199,-358L3577,-32Z" fill="#909090" stroke="#909090" stroke-width="1.51"/><path d="M3383,2418L2957,2537L3683,2592Z" fill="#ffffff" stroke="#ffffff" stroke-width="1.51"/><path d="M3403,1706L3294,1730L3764,1956Z" fill="#ffffff" stroke="#ffffff" stroke-width="1.51"/><path d="M3294,1730L3383,2418L3764,1956Z" fill="#ffffff" stroke="#ffffff" stroke-width="1.51"/><path d="M3573,1560L3403,1706L3764,1956Z" fill="#ffffff" stroke="#ffffff" stroke-width="1.51"/><path d="M3294,1730L3128,2328L3383,2418Z" fill="#ffffff" stroke="#ffffff" stroke-width="1.51"/><path d="M2973,832L3546,1183L3662,668Z" fill="#dddddd" stroke="#dddddd" stroke-width="1.51"/><path d="M2973,832L3137,1209L3546,1183Z" fill="#e5e5e5" stroke="#e5e5e5" stroke-width="1.51"/><path d="M3502,392L2973,832L3662,668Z" fill="#d2d2d2" stroke="#d2d2d2" stroke-width="1.51"/><path d="M3124,322L2973,832L3502,392Z" fill="#cdcdcd" stroke="#cdcdcd" stroke-width="1.51"/><path d="M3063,1330L3403,1706L3573,1560Z" fill="#f8f8f8" stroke="#f8f8f8" stroke-width="1.51"/><path d="M3137,1209L3063,1330L3573,1560Z" fill="#f1f1f1" stroke="#f1f1f1" stroke-width="1.51"/><path d="M3546,1183L3137,1209L3573,1560Z" fill="#efefef" stroke="#efefef" stroke-width="1.51"/><path d="M2890,-449L3199,-358L3574,-646Z" fill="#878787" stroke="#878787" stroke-width="1.51"/><path d="M3124,322L3502,392L3577,-32Z" fill="#b9b9b9" stroke="#b9b9b9" stroke-width="1.51"/><path d="M3199,-358L3124,322L3577,-32Z" fill="#a7a7a7" stroke="#a7a7a7" stroke-width="1.51"/><path d="M2964,-239L3124,322L3199,-358Z" fill="#a2a2a2" stroke="#a2a2a2" stroke-width="1.51"/><path d="M3063,1330L3294,1730L3403,1706Z" fill="#fbfbfb" stroke="#fbfbfb" stroke-width="1.51"/><path d="M2964,-239L2874,144L3124,322Z" fill="#aeaeae" stroke="#aeaeae" stroke-width="1.51"/><path d="M3128,2328L2957,2537L3383,2418Z" fill="#ffffff" stroke="#ffffff" stroke-width="1.51"/><path d="M2728,2160L3128,2328L3294,1730Z" fill="#ffffff" stroke="#ffffff" stroke-width="1.51"/><path d="M3063,1330L2768,1582L3294,1730Z" fill="#f9f9f9" stroke="#f9f9f9" stroke-width="1.51"/><path d="M2768,1582L2728,2160L3294,1730Z" fill="#ffffff" stroke="#ffffff" stroke-width="1.51"/><path d="M2760,561L2973,832L3124,322Z" fill="#d0d0d0" stroke="#d0d0d0" stroke-width="1.51"/><path d="M2890,-449L2964,-239L3199,-358Z" fill="#909090" stroke="#909090" stroke-width="1.51"/><path d="M2583,2003L2728,2160L2768,1582Z" fill="#fcfcfc" stroke="#fcfcfc" stroke-width="1.51"/><path d="M2646,1211L3063,1330L3137,1209Z" fill="#ececec" stroke="#ececec" stroke-width="1.51"/><path d="M2973,832L2646,1211L3137,1209Z" fill="#e5e5e5" stroke="#e5e5e5" stroke-width="1.51"/><path d="M2874,144L2760,561L3124,322Z" fill="#c2c2c2" stroke="#c2c2c2" stroke-width="1.51"/><path d="M2728,2160L2957,2537L3128,2328Z" fill="#ffffff" stroke="#ffffff" stroke-width="1.51"/><path d="M2646,1211L2768,1582L3063,1330Z" fill="#f2f2f2" stroke="#f2f2f2" stroke-width="1.51"/><path d="M1336,2664L988,2806L2095,2694Z" fill="#d8d8d8" stroke="#d8d8d8" stroke-width="1.51"/><path d="M2728,2160L2785,2697L2957,2537Z" fill="#ffffff" stroke="#ffffff" stroke-width="1.51"/><path d="M2606,-208L2874,144L2964,-239Z" fill="#a2a2a2" stroke="#a2a2a2" stroke-width="1.51"/><path d="M2760,561L2646,1211L2973,832Z" fill="#dcdcdc" stroke="#dcdcdc" stroke-width="1.51"/><path d="M2890,-449L2606,-208L2964,-239Z" fill="#949494" stroke="#949494" stroke-width="1.51"/><path d="M2421,1156L2646,1211L2760,561Z" fill="#dbdbdb" stroke="#dbdbdb" stroke-width="1.51"/><path d="M2268,836L2421,1156L2760,561Z" fill="#d3d3d3" stroke="#d3d3d3" stroke-width="1.51"/><path d="M2391,2559L2095,2694L2785,2697Z" fill="#f4f4f4" stroke="#f4f4f4" stroke-width="1.51"/><path d="M2728,2160L2391,2559L2785,2697Z" fill="#fafafa" stroke="#fafafa" stroke-width="1.51"/><path d="M2606,-208L2442,27L2874,144Z" fill="#a4a4a4" stroke="#a4a4a4" stroke-width="1.51"/><path d="M2346,389L2760,561L2874,144Z" fill="#c0c0c0" stroke="#c0c0c0" stroke-width="1.51"/><path d="M2442,27L2346,389L2874,144Z" fill="#b0b0b0" stroke="#b0b0b0" stroke-width="1.51"/><path d="M2321,-574L2606,-208L2890,-449Z" fill="#878787" stroke="#878787" stroke-width="1.51"/><path d="M2646,1211L2443,1504L2768,1582Z" fill="#efefef" stroke="#efefef" stroke-width="1.51"/><path d="M2443,1504L2583,2003L2768,1582Z" fill="#f9f9f9" stroke="#f9f9f9" stroke-width="1.51"/><path d="M2346,389L2268,836L2760,561Z" fill="#c7c7c7" stroke="#c7c7c7" stroke-width="1.51"/><path d="M2221,2048L2391,2559L2583,2003Z" fill="#f3f3f3" stroke="#f3f3f3" stroke-width="1.51"/><path d="M2583,2003L2391,2559L2728,2160Z" fill="#f8f8f8" stroke="#f8f8f8" stroke-width="1.51"/><path d="M2221,2048L2159,2398L2391,2559Z" fill="#efefef" stroke="#efefef" stroke-width="1.51"/><path d="M2443,1504L2221,2048L2583,2003Z" fill="#f4f4f4" stroke="#f4f4f4" stroke-width="1.51"/><path d="M2421,1156L2443,1504L2646,1211Z" fill="#e6e6e6" stroke="#e6e6e6" stroke-width="1.51"/><path d="M2057,1881L2221,2048L2443,1504Z" fill="#efefef" stroke="#efefef" stroke-width="1.51"/><path d="M2080,-493L2442,27L2606,-208Z" fill="#8d8d8d" stroke="#8d8d8d" stroke-width="1.51"/><path d="M2321,-574L2080,-493L2606,-208Z" fill="#7f7f7f" stroke="#7f7f7f" stroke-width="1.51"/><path d="M1632,-651L2080,-493L2321,-574Z" fill="#6c6c6c" stroke="#6c6c6c" stroke-width="1.51"/><path d="M1980,742L2268,836L2346,389Z" fill="#c2c2c2" stroke="#c2c2c2" stroke-width="1.51"/><path d="M2080,-493L2096,52L2442,27Z" fill="#8f8f8f" stroke="#8f8f8f" stroke-width="1.51"/><path d="M2096,52L2346,389L2442,27Z" fill="#a7a7a7" stroke="#a7a7a7" stroke-width="1.51"/><path d="M1824,1559L2057,1881L2443,1504Z" fill="#e9e9e9" stroke="#e9e9e9" stroke-width="1.51"/><path d="M2421,1156L1939,1188L2443,1504Z" fill="#dedede" stroke="#dedede" stroke-width="1.51"/><path d="M1939,1188L1824,1559L2443,1504Z" fill="#dedede" stroke="#dedede" stroke-width="1.51"/><path d="M2268,836L1939,1188L2421,1156Z" fill="#d3d3d3" stroke="#d3d3d3" stroke-width="1.51"/><path d="M2159,2398L2095,2694L2391,2559Z" fill="#eeeeee" stroke="#eeeeee" stroke-width="1.51"/><path d="M2096,52L1871,288L2346,389Z" fill="#a7a7a7" stroke="#a7a7a7" stroke-width="1.51"/><path d="M1871,288L1980,742L2346,389Z" fill="#b7b7b7" stroke="#b7b7b7" stroke-width="1.51"/><path d="M1956,2199L2159,2398L2221,2048Z" fill="#ebebeb" stroke="#ebebeb" stroke-width="1.51"/><path d="M1980,742L1939,1188L2268,836Z" fill="#c9c9c9" stroke="#c9c9c9" stroke-width="1.51"/><path d="M2057,1881L1956,2199L2221,2048Z" fill="#eaeaea" stroke="#eaeaea" stroke-width="1.51"/><path d="M2080,-493L1562,-63L2096,52Z" fill="#858585" stroke="#858585" stroke-width="1.51"/><path d="M1956,2199L2095,2694L2159,2398Z" fill="#eaeaea" stroke="#eaeaea" stroke-width="1.51"/><path d="M1499,2181L1336,2664L1956,2199Z" fill="#dbdbdb" stroke="#dbdbdb" stroke-width="1.51"/><path d="M1632,-651L1562,-63L2080,-493Z" fill="#727272" stroke="#727272" stroke-width="1.51"/><path d="M1956,2199L1336,2664L2095,2694Z" fill="#e2e2e2" stroke="#e2e2e2" stroke-width="1.51"/><path d="M1562,-63L1871,288L2096,52Z" fill="#959595" stroke="#959595" stroke-width="1.51"/><path d="M1689,1161L1939,1188L1980,742Z" fill="#c8c8c8" stroke="#c8c8c8" stroke-width="1.51"/><path d="M-482,-386L-16,-424L593,-613Z" fill="#303030" stroke="#303030" stroke-width="1.51"/><path d="M1871,288L1576,654L1980,742Z" fill="#b3b3b3" stroke="#b3b3b3" stroke-width="1.51"/><path d="M1824,1559L1446,1774L2057,1881Z" fill="#e1e1e1" stroke="#e1e1e1" stroke-width="1.51"/><path d="M1499,2181L1956,2199L2057,1881Z" fill="#e3e3e3" stroke="#e3e3e3" stroke-width="1.51"/><path d="M1446,1774L1499,2181L2057,1881Z" fill="#dedede" stroke="#dedede" stroke-width="1.51"/><path d="M1689,1161L1824,1559L1939,1188Z" fill="#d2d2d2" stroke="#d2d2d2" stroke-width="1.51"/><path d="M1576,654L1689,1161L1980,742Z" fill="#bdbdbd" stroke="#bdbdbd" stroke-width="1.51"/><path d="M1689,1161L1421,1354L1824,1559Z" fill="#cfcfcf" stroke="#cfcfcf" stroke-width="1.51"/><path d="M1459,141L1576,654L1871,288Z" fill="#a3a3a3" stroke="#a3a3a3" stroke-width="1.51"/><path d="M1562,-63L1459,141L1871,288Z" fill="#919191" stroke="#919191" stroke-width="1.51"/><path d="M1257,2460L1336,2664L1499,2181Z" fill="#d5d5d5" stroke="#d5d5d5" stroke-width="1.51"/><path d="M1576,654L1292,958L1689,1161Z" fill="#bababa" stroke="#bababa" stroke-width="1.51"/><path d="M1421,1354L1446,1774L1824,1559Z" fill="#d6d6d6" stroke="#d6d6d6" stroke-width="1.51"/><path d="M1286,823L1292,958L1576,654Z" fill="#b1b1b1" stroke="#b1b1b1" stroke-width="1.51"/><path d="M993,-647L1562,-63L1632,-651Z" fill="#656565" stroke="#656565" stroke-width="1.51"/><path d="M1292,958L1421,1354L1689,1161Z" fill="#c2c2c2" stroke="#c2c2c2" stroke-width="1.51"/><path d="M993,-647L884,-186L1140,39Z" fill="#666666" stroke="#666666" stroke-width="1.51"/><path d="M993,-647L1140,39L1562,-63Z" fill="#707070" stroke="#707070" stroke-width="1.51"/><path d="M1459,141L974,341L1576,654Z" fill="#9c9c9c" stroke="#9c9c9c" stroke-width="1.51"/><path d="M1421,1354L1135,1559L1446,1774Z" fill="#cfcfcf" stroke="#cfcfcf" stroke-width="1.51"/><path d="M974,341L1286,823L1576,654Z" fill="#a6a6a6" stroke="#a6a6a6" stroke-width="1.51"/><path d="M1140,39L1459,141L1562,-63Z" fill="#858585" stroke="#858585" stroke-width="1.51"/><path d="M1140,39L974,341L1459,141Z" fill="#8a8a8a" stroke="#8a8a8a" stroke-width="1.51"/><path d="M1446,1774L981,1762L1499,2181Z" fill="#d3d3d3" stroke="#d3d3d3" stroke-width="1.51"/><path d="M981,1762L1257,2460L1499,2181Z" fill="#d2d2d2" stroke="#d2d2d2" stroke-width="1.51"/><path d="M1135,1559L981,1762L1446,1774Z" fill="#d0d0d0" stroke="#d0d0d0" stroke-width="1.51"/><path d="M1292,958L1135,1559L1421,1354Z" fill="#c3c3c3" stroke="#c3c3c3" stroke-width="1.51"/><path d="M738,1135L764,1429L1135,1559Z" fill="#b6b6b6" stroke="#b6b6b6" stroke-width="1.51"/><path d="M981,1762L637,2347L1257,2460Z" fill="#c7c7c7" stroke="#c7c7c7" stroke-width="1.51"/><path d="M974,341L734,734L1286,823Z" fill="#9e9e9e" stroke="#9e9e9e" stroke-width="1.51"/><path d="M738,1135L1135,1559L1292,958Z" fill="#b9b9b9" stroke="#b9b9b9" stroke-width="1.51"/><path d="M1257,2460L988,2806L1336,2664Z" fill="#d0d0d0" stroke="#d0d0d0" stroke-width="1.51"/><path d="M887,2730L988,2806L1257,2460Z" fill="#cbcbcb" stroke="#cbcbcb" stroke-width="1.51"/><path d="M1286,823L734,734L1292,958Z" fill="#ababab" stroke="#ababab" stroke-width="1.51"/><path d="M734,734L738,1135L1292,958Z" fill="#a7a7a7" stroke="#a7a7a7" stroke-width="1.51"/><path d="M637,2347L887,2730L1257,2460Z" fill="#c6c6c6" stroke="#c6c6c6" stroke-width="1.51"/><path d="M884,-186L974,341L1140,39Z" fill="#7c7c7c" stroke="#7c7c7c" stroke-width="1.51"/><path d="M852,1712L637,2347L981,1762Z" fill="#c0c0c0" stroke="#c0c0c0" stroke-width="1.51"/><path d="M852,1712L981,1762L1135,1559Z" fill="#c9c9c9" stroke="#c9c9c9" stroke-width="1.51"/><path d="M764,1429L852,1712L1135,1559Z" fill="#c0c0c0" stroke="#c0c0c0" stroke-width="1.51"/><path d="M884,-186L614,306L974,341Z" fill="#797979" stroke="#797979" stroke-width="1.51"/><path d="M614,306L734,734L974,341Z" fill="#8c8c8c" stroke="#8c8c8c" stroke-width="1.51"/><path d="M887,2730L397,2785L988,2806Z" fill="#bdbdbd" stroke="#bdbdbd" stroke-width="1.51"/><path d="M593,-613L884,-186L993,-647Z" fill="#505050" stroke="#505050" stroke-width="1.51"/><path d="M-16,-424L413,-502L593,-613Z" fill="#3a3a3a" stroke="#3a3a3a" stroke-width="1.51"/><path d="M304,1714L215,2142L637,2347Z" fill="#aaaaaa" stroke="#aaaaaa" stroke-width="1.51"/><path d="M304,1714L637,2347L852,1712Z" fill="#b5b5b5" stroke="#b5b5b5" stroke-width="1.51"/><path d="M593,-613L413,-502L884,-186Z" fill="#4b4b4b" stroke="#4b4b4b" stroke-width="1.51"/><path d="M384,57L614,306L884,-186Z" fill="#6a6a6a" stroke="#6a6a6a" stroke-width="1.51"/><path d="M637,2347L397,2785L887,2730Z" fill="#b7b7b7" stroke="#b7b7b7" stroke-width="1.51"/><path d="M413,-502L384,57L884,-186Z" fill="#565656" stroke="#565656" stroke-width="1.51"/><path d="M764,1429L304,1714L852,1712Z" fill="#b5b5b5" stroke="#b5b5b5" stroke-width="1.51"/><path d="M614,306L334,436L734,734Z" fill="#848484" stroke="#848484" stroke-width="1.51"/><path d="M334,436L312,740L734,734Z" fill="#858585" stroke="#858585" stroke-width="1.51"/><path d="M734,734L312,740L738,1135Z" fill="#949494" stroke="#949494" stroke-width="1.51"/><path d="M312,740L195,1034L738,1135Z" fill="#8f8f8f" stroke="#8f8f8f" stroke-width="1.51"/><path d="M269,1637L304,1714L764,1429Z" fill="#a9a9a9" stroke="#a9a9a9" stroke-width="1.51"/><path d="M738,1135L195,1034L764,1429Z" fill="#a0a0a0" stroke="#a0a0a0" stroke-width="1.51"/><path d="M195,1034L269,1637L764,1429Z" fill="#9f9f9f" stroke="#9f9f9f" stroke-width="1.51"/><path d="M215,2142L397,2785L637,2347Z" fill="#ababab" stroke="#ababab" stroke-width="1.51"/><path d="M384,57L334,436L614,306Z" fill="#6f6f6f" stroke="#6f6f6f" stroke-width="1.51"/><path d="M195,1034L41,1633L269,1637Z" fill="#969696" stroke="#969696" stroke-width="1.51"/><path d="M-263,434L334,436L384,57Z" fill="#656565" stroke="#656565" stroke-width="1.51"/><path d="M-16,-424L-208,-129L384,57Z" fill="#434343" stroke="#434343" stroke-width="1.51"/><path d="M-172,2509L-526,2770L397,2785Z" fill="#929292" stroke="#929292" stroke-width="1.51"/><path d="M215,2142L-95,2353L397,2785Z" fill="#a0a0a0" stroke="#a0a0a0" stroke-width="1.51"/><path d="M-95,2353L-172,2509L397,2785Z" fill="#999999" stroke="#999999" stroke-width="1.51"/><path d="M-16,-424L384,57L413,-502Z" fill="#444444" stroke="#444444" stroke-width="1.51"/><path d="M-75,1906L215,2142L304,1714Z" fill="#9e9e9e" stroke="#9e9e9e" stroke-width="1.51"/><path d="M-208,-129L-263,434L384,57Z" fill="#515151" stroke="#515151" stroke-width="1.51"/><path d="M-214,1190L41,1633L195,1034Z" fill="#888888" stroke="#888888" stroke-width="1.51"/><path d="M41,1633L-75,1906L304,1714Z" fill="#9c9c9c" stroke="#9c9c9c" stroke-width="1.51"/><path d="M-80,686L312,740L334,436Z" fill="#777777" stroke="#777777" stroke-width="1.51"/><path d="M-263,434L-80,686L334,436Z" fill="#6a6a6a" stroke="#6a6a6a" stroke-width="1.51"/><path d="M-80,686L195,1034L312,740Z" fill="#7c7c7c" stroke="#7c7c7c" stroke-width="1.51"/><path d="M269,1637L41,1633L304,1714Z" fill="#a0a0a0" stroke="#a0a0a0" stroke-width="1.51"/><path d="M-75,1906L-95,2353L215,2142Z" fill="#989898" stroke="#989898" stroke-width="1.51"/><path d="M-80,686L-214,1190L195,1034Z" fill="#7a7a7a" stroke="#7a7a7a" stroke-width="1.51"/><path d="M-459,126L-263,434L-208,-129Z" fill="#464646" stroke="#464646" stroke-width="1.51"/><path d="M-330,2325L-95,2353L-75,1906Z" fill="#8f8f8f" stroke="#8f8f8f" stroke-width="1.51"/><path d="M-214,1190L-380,1361L41,1633Z" fill="#838383" stroke="#838383" stroke-width="1.51"/><path d="M-380,1361L-336,1700L41,1633Z" fill="#888888" stroke="#888888" stroke-width="1.51"/><path d="M-336,1700L-75,1906L41,1633Z" fill="#919191" stroke="#919191" stroke-width="1.51"/><path d="M-335,1196L-214,1190L-80,686Z" fill="#747474" stroke="#747474" stroke-width="1.51"/><path d="M-482,-386L-208,-129L-16,-424Z" fill="#2e2e2e" stroke="#2e2e2e" stroke-width="1.51"/><path d="M-628,744L-335,1196L-80,686Z" fill="#686868" stroke="#686868" stroke-width="1.51"/><path d="M-336,1700L-330,2325L-75,1906Z" fill="#8c8c8c" stroke="#8c8c8c" stroke-width="1.51"/><path d="M-263,434L-628,744L-80,686Z" fill="#606060" stroke="#606060" stroke-width="1.51"/><path d="M-330,2325L-172,2509L-95,2353Z" fill="#8d8d8d" stroke="#8d8d8d" stroke-width="1.51"/><path d="M-335,1196L-380,1361L-214,1190Z" fill="#787878" stroke="#787878" stroke-width="1.51"/><path d="M-330,2325L-526,2770L-172,2509Z" fill="#878787" stroke="#878787" stroke-width="1.51"/><path d="M-599,-288L-459,126L-208,-129Z" fill="#333333" stroke="#333333" stroke-width="1.51"/><path d="M-482,-386L-599,-288L-208,-129Z" fill="#292929" stroke="#292929" stroke-width="1.51"/><path d="M-459,126L-628,744L-263,434Z" fill="#525252" stroke="#525252" stroke-width="1.51"/><path d="M-336,1700L-526,2770L-330,2325Z" fill="#848484" stroke="#848484" stroke-width="1.51"/><path d="M-380,1361L-628,744L-336,1700Z" fill="#737373" stroke="#737373" stroke-width="1.51"/><path d="M-628,744L-526,2770L-336,1700Z" fill="#7f7f7f" stroke="#7f7f7f" stroke-width="1.51"/><path d="M-628,744L-380,1361L-335,1196Z" fill="#6c6c6c" stroke="#6c6c6c" stroke-width="1.51"/><path d="M-599,-288L-628,744L-459,126Z" fill="#3f3f3f" stroke="#3f3f3f" stroke-width="1.51"/></svg>