<svg xmlns="http://www.w3.org/2000/svg" width="3840" height="2160"><path d="M701,2732L-66,2760L1496,2753Z" fill="#bfbfbf" stroke="#bfbfbf" stroke-width="1.51"/><path d="M2794,2710L1496,2753L3501,2755Z" fill="#adadad" stroke="#adadad" stroke-width="1.51"/><path d="M3889,873L3985,1223L4201,680Z" fill="#b9b9b9" stroke="#b9b9b9" stroke-width="1.51"/><path d="M4025,103L4037,646L4201,680Z" fill="#c0c0c0" stroke="#c0c0c0" stroke-width="1.51"/><path d="M3267,-485L3994,-424L4306,-461Z" fill="#d0d0d0" stroke="#d0d0d0" stroke-width="1.51"/><path d="M2646,-557L3267,-485L4306,-461Z" fill="#d4d4d4" stroke="#d4d4d4" stroke-width="1.51"/><path d="M4179,1549L4236,1869L4387,1334Z" fill="#aeaeae" stroke="#aeaeae" stroke-width="1.51"/><path d="M4208,2138L4043,2413L4408,2538Z" fill="#a3a3a3" stroke="#a3a3a3" stroke-width="1.51"/><path d="M4387,1334L4236,1869L4408,2538Z" fill="#a8a8a8" stroke="#a8a8a8" stroke-width="1.51"/><path d="M4236,1869L4208,2138L4408,2538Z" fill="#a5a5a5" stroke="#a5a5a5" stroke-width="1.51"/><path d="M3985,1223L4387,1334L4415,760Z" fill="#b5b5b5" stroke="#b5b5b5" stroke-width="1.51"/><path d="M4201,680L3985,1223L4415,760Z" fill="#b9b9b9" stroke="#b9b9b9" stroke-width="1.51"/><path d="M4387,1334L4408,2538L4415,760Z" fill="#adadad" stroke="#adadad" stroke-width="1.51"/><path d="M4306,-461L4347,-218L4454,165Z" fill="#c6c6c6" stroke="#c6c6c6" stroke-width="1.51"/><path d="M4347,-218L4025,103L4454,165Z" fill="#c5c5c5" stroke="#c5c5c5" stroke-width="1.51"/><path d="M4201,680L4415,760L4454,165Z" fill="#bcbcbc" stroke="#bcbcbc" stroke-width="1.51"/><path d="M4025,103L4201,680L4454,165Z" fill="#c1c1c1" stroke="#c1c1c1" stroke-width="1.51"/><path d="M4415,760L4408,2538L4454,165Z" fill="#b3b3b3" stroke="#b3b3b3" stroke-width="1.51"/><path d="M4043,2413L3990,2739L4408,2538Z" fill="#a1a1a1" stroke="#a1a1a1" stroke-width="1.51"/><path d="M4179,1549L4087,1647L4236,1869Z" fill="#adadad" stroke="#adadad" stroke-width="1.51"/><path d="M3985,1223L4179,1549L4387,1334Z" fill="#b1b1b1" stroke="#b1b1b1" stroke-width="1.51"/><path d="M3827,-100L4025,103L4347,-218Z" fill="#c8c8c8" stroke="#c8c8c8" stroke-width="1.51"/><path d="M3994,-424L3827,-100L4347,-218Z" fill="#cbcbcb" stroke="#cbcbcb" stroke-width="1.51"/><path d="M4306,-461L3994,-424L4347,-218Z" fill="#cbcbcb" stroke="#cbcbcb" stroke-width="1.51"/><path d="M1156,-557L1697,-449L2646,-557Z" fill="#e5e5e5" stroke="#e5e5e5" stroke-width="1.51"/><path d="M4037,646L3889,873L4201,680Z" fill="#bcbcbc" stroke="#bcbcbc" stroke-width="1.51"/><path d="M3883,1824L4208,2138L4236,1869Z" fill="#aaaaaa" stroke="#aaaaaa" stroke-width="1.51"/><path d="M4087,1647L3883,1824L4236,1869Z" fill="#adadad" stroke="#adadad" stroke-width="1.51"/><path d="M3267,-485L3645,-314L3994,-424Z" fill="#d1d1d1" stroke="#d1d1d1" stroke-width="1.51"/><path d="M3621,2057L4043,2413L4208,2138Z" fill="#a8a8a8" stroke="#a8a8a8" stroke-width="1.51"/><path d="M3883,1824L3621,2057L4208,2138Z" fill="#ababab" stroke="#ababab" stroke-width="1.51"/><path d="M3985,1223L4087,1647L4179,1549Z" fill="#b1b1b1" stroke="#b1b1b1" stroke-width="1.51"/><path d="M4025,103L3598,200L4037,646Z" fill="#c4c4c4" stroke="#c4c4c4" stroke-width="1.51"/><path d="M3598,200L3532,501L4037,646Z" fill="#c4c4c4" stroke="#c4c4c4" stroke-width="1.51"/><path d="M3985,1223L3652,1542L4087,1647Z" fill="#b3b3b3" stroke="#b3b3b3" stroke-width="1.51"/><path d="M3652,1542L3883,1824L4087,1647Z" fill="#b0b0b0" stroke="#b0b0b0" stroke-width="1.51"/><path d="M3889,873L3722,960L3985,1223Z" fill="#bababa" stroke="#bababa" stroke-width="1.51"/><path d="M3621,2057L3492,2299L4043,2413Z" fill="#a9a9a9" stroke="#a9a9a9" stroke-width="1.51"/><path d="M3501,2755L3990,2739L4043,2413Z" fill="#a3a3a3" stroke="#a3a3a3" stroke-width="1.51"/><path d="M3492,2299L3501,2755L4043,2413Z" fill="#a6a6a6" stroke="#a6a6a6" stroke-width="1.51"/><path d="M3645,-314L3827,-100L3994,-424Z" fill="#cdcdcd" stroke="#cdcdcd" stroke-width="1.51"/><path d="M3532,501L3889,873L4037,646Z" fill="#bfbfbf" stroke="#bfbfbf" stroke-width="1.51"/><path d="M3827,-100L3723,-65L4025,103Z" fill="#c9c9c9" stroke="#c9c9c9" stroke-width="1.51"/><path d="M3723,-65L3598,200L4025,103Z" fill="#c8c8c8" stroke="#c8c8c8" stroke-width="1.51"/><path d="M3520,1115L3652,1542L3985,1223Z" fill="#b7b7b7" stroke="#b7b7b7" stroke-width="1.51"/><path d="M3722,960L3520,1115L3985,1223Z" fill="#bababa" stroke="#bababa" stroke-width="1.51"/><path d="M3532,501L3722,960L3889,873Z" fill="#bfbfbf" stroke="#bfbfbf" stroke-width="1.51"/><path d="M3652,1542L3621,2057L3883,1824Z" fill="#b0b0b0" stroke="#b0b0b0" stroke-width="1.51"/><path d="M2646,-557L2889,-470L3267,-485Z" fill="#d9d9d9" stroke="#d9d9d9" stroke-width="1.51"/><path d="M3645,-314L3723,-65L3827,-100Z" fill="#cccccc" stroke="#cccccc" stroke-width="1.51"/><path d="M3205,2012L3621,2057L3652,1542Z" fill="#b1b1b1" stroke="#b1b1b1" stroke-width="1.51"/><path d="M3135,1552L3205,2012L3652,1542Z" fill="#b5b5b5" stroke="#b5b5b5" stroke-width="1.51"/><path d="M3520,1115L3418,1184L3652,1542Z" fill="#b9b9b9" stroke="#b9b9b9" stroke-width="1.51"/><path d="M3532,501L3332,996L3722,960Z" fill="#c0c0c0" stroke="#c0c0c0" stroke-width="1.51"/><path d="M3332,996L3520,1115L3722,960Z" fill="#bdbdbd" stroke="#bdbdbd" stroke-width="1.51"/><path d="M3645,-314L3288,11L3723,-65Z" fill="#cdcdcd" stroke="#cdcdcd" stroke-width="1.51"/><path d="M3288,11L3598,200L3723,-65Z" fill="#cccccc" stroke="#cccccc" stroke-width="1.51"/><path d="M3212,2616L2794,2710L3501,2755Z" fill="#a8a8a8" stroke="#a8a8a8" stroke-width="1.51"/><path d="M3492,2299L3313,2324L3501,2755Z" fill="#a9a9a9" stroke="#a9a9a9" stroke-width="1.51"/><path d="M3313,2324L3212,2616L3501,2755Z" fill="#a8a8a8" stroke="#a8a8a8" stroke-width="1.51"/><path d="M3257,535L3332,996L3532,501Z" fill="#c4c4c4" stroke="#c4c4c4" stroke-width="1.51"/><path d="M3267,-485L3288,11L3645,-314Z" fill="#d1d1d1" stroke="#d1d1d1" stroke-width="1.51"/><path d="M3418,1184L3135,1552L3652,1542Z" fill="#b8b8b8" stroke="#b8b8b8" stroke-width="1.51"/><path d="M3257,535L3532,501L3598,200Z" fill="#c7c7c7" stroke="#c7c7c7" stroke-width="1.51"/><path d="M3205,2012L3492,2299L3621,2057Z" fill="#aeaeae" stroke="#aeaeae" stroke-width="1.51"/><path d="M3288,11L3227,86L3598,200Z" fill="#cccccc" stroke="#cccccc" stroke-width="1.51"/><path d="M3227,86L3257,535L3598,200Z" fill="#cacaca" stroke="#cacaca" stroke-width="1.51"/><path d="M3205,2012L3313,2324L3492,2299Z" fill="#adadad" stroke="#adadad" stroke-width="1.51"/><path d="M3332,996L3418,1184L3520,1115Z" fill="#bdbdbd" stroke="#bdbdbd" stroke-width="1.51"/><path d="M3135,1552L3051,1938L3205,2012Z" fill="#b5b5b5" stroke="#b5b5b5" stroke-width="1.51"/><path d="M3267,-485L2881,-180L3288,11Z" fill="#d3d3d3" stroke="#d3d3d3" stroke-width="1.51"/><path d="M3257,535L2927,957L3332,996Z" fill="#c3c3c3" stroke="#c3c3c3" stroke-width="1.51"/><path d="M2808,1315L3075,1529L3418,1184Z" fill="#bcbcbc" stroke="#bcbcbc" stroke-width="1.51"/><path d="M3332,996L2927,957L3418,1184Z" fill="#c0c0c0" stroke="#c0c0c0" stroke-width="1.51"/><path d="M2927,957L2808,1315L3418,1184Z" fill="#c0c0c0" stroke="#c0c0c0" stroke-width="1.51"/><path d="M3075,1529L3135,1552L3418,1184Z" fill="#bababa" stroke="#bababa" stroke-width="1.51"/><path d="M1697,-449L2315,-435L2646,-557Z" fill="#e0e0e0" stroke="#e0e0e0" stroke-width="1.51"/><path d="M3227,86L2953,251L3257,535Z" fill="#cbcbcb" stroke="#cbcbcb" stroke-width="1.51"/><path d="M2953,251L2959,473L3257,535Z" fill="#cacaca" stroke="#cacaca" stroke-width="1.51"/><path d="M2959,473L2927,957L3257,535Z" fill="#c7c7c7" stroke="#c7c7c7" stroke-width="1.51"/><path d="M2889,-470L2881,-180L3267,-485Z" fill="#d7d7d7" stroke="#d7d7d7" stroke-width="1.51"/><path d="M2809,2336L3212,2616L3313,2324Z" fill="#adadad" stroke="#adadad" stroke-width="1.51"/><path d="M3205,2012L2809,2336L3313,2324Z" fill="#b0b0b0" stroke="#b0b0b0" stroke-width="1.51"/><path d="M2881,-180L3227,86L3288,11Z" fill="#d0d0d0" stroke="#d0d0d0" stroke-width="1.51"/><path d="M3051,1938L2809,2336L3205,2012Z" fill="#b2b2b2" stroke="#b2b2b2" stroke-width="1.51"/><path d="M3075,1529L3051,1938L3135,1552Z" fill="#b8b8b8" stroke="#b8b8b8" stroke-width="1.51"/><path d="M2809,2336L2744,2467L3212,2616Z" fill="#aeaeae" stroke="#aeaeae" stroke-width="1.51"/><path d="M2881,-180L2953,251L3227,86Z" fill="#d0d0d0" stroke="#d0d0d0" stroke-width="1.51"/><path d="M2738,2195L2809,2336L3051,1938Z" fill="#b3b3b3" stroke="#b3b3b3" stroke-width="1.51"/><path d="M2744,2467L2794,2710L3212,2616Z" fill="#acacac" stroke="#acacac" stroke-width="1.51"/><path d="M2122,2488L1496,2753L2794,2710Z" fill="#b3b3b3" stroke="#b3b3b3" stroke-width="1.51"/><path d="M2721,559L2927,957L2959,473Z" fill="#c8c8c8" stroke="#c8c8c8" stroke-width="1.51"/><path d="M2881,-180L2649,-35L2953,251Z" fill="#d3d3d3" stroke="#d3d3d3" stroke-width="1.51"/><path d="M2808,1315L2500,1442L3075,1529Z" fill="#bebebe" stroke="#bebebe" stroke-width="1.51"/><path d="M2408,1803L3051,1938L3075,1529Z" fill="#b9b9b9" stroke="#b9b9b9" stroke-width="1.51"/><path d="M2500,1442L2408,1803L3075,1529Z" fill="#bdbdbd" stroke="#bdbdbd" stroke-width="1.51"/><path d="M2483,2047L2738,2195L3051,1938Z" fill="#b5b5b5" stroke="#b5b5b5" stroke-width="1.51"/><path d="M2408,1803L2483,2047L3051,1938Z" fill="#b8b8b8" stroke="#b8b8b8" stroke-width="1.51"/><path d="M2645,1318L2500,1442L2808,1315Z" fill="#c1c1c1" stroke="#c1c1c1" stroke-width="1.51"/><path d="M2622,998L2808,1315L2927,957Z" fill="#c3c3c3" stroke="#c3c3c3" stroke-width="1.51"/><path d="M2721,559L2622,998L2927,957Z" fill="#c7c7c7" stroke="#c7c7c7" stroke-width="1.51"/><path d="M2585,325L2721,559L2953,251Z" fill="#cecece" stroke="#cecece" stroke-width="1.51"/><path d="M2649,-35L2585,325L2953,251Z" fill="#d1d1d1" stroke="#d1d1d1" stroke-width="1.51"/><path d="M2953,251L2721,559L2959,473Z" fill="#cccccc" stroke="#cccccc" stroke-width="1.51"/><path d="M1927,2508L1496,2753L2122,2488Z" fill="#b7b7b7" stroke="#b7b7b7" stroke-width="1.51"/><path d="M2646,-557L2881,-180L2889,-470Z" fill="#d9d9d9" stroke="#d9d9d9" stroke-width="1.51"/><path d="M2622,998L2645,1318L2808,1315Z" fill="#c2c2c2" stroke="#c2c2c2" stroke-width="1.51"/><path d="M2646,-557L2649,-35L2881,-180Z" fill="#d8d8d8" stroke="#d8d8d8" stroke-width="1.51"/><path d="M2646,-557L2315,-435L2649,-35Z" fill="#dbdbdb" stroke="#dbdbdb" stroke-width="1.51"/><path d="M2738,2195L2744,2467L2809,2336Z" fill="#b1b1b1" stroke="#b1b1b1" stroke-width="1.51"/><path d="M2744,2467L2122,2488L2794,2710Z" fill="#b0b0b0" stroke="#b0b0b0" stroke-width="1.51"/><path d="M2263,606L2622,998L2721,559Z" fill="#cbcbcb" stroke="#cbcbcb" stroke-width="1.51"/><path d="M2483,2047L2266,2311L2738,2195Z" fill="#b6b6b6" stroke="#b6b6b6" stroke-width="1.51"/><path d="M2738,2195L2266,2311L2744,2467Z" fill="#b3b3b3" stroke="#b3b3b3" stroke-width="1.51"/><path d="M2266,2311L2122,2488L2744,2467Z" fill="#b4b4b4" stroke="#b4b4b4" stroke-width="1.51"/><path d="M2327,27L2585,325L2649,-35Z" fill="#d4d4d4" stroke="#d4d4d4" stroke-width="1.51"/><path d="M2585,325L2263,606L2721,559Z" fill="#cecece" stroke="#cecece" stroke-width="1.51"/><path d="M2135,1039L2275,1359L2622,998Z" fill="#c7c7c7" stroke="#c7c7c7" stroke-width="1.51"/><path d="M2263,606L2135,1039L2622,998Z" fill="#cbcbcb" stroke="#cbcbcb" stroke-width="1.51"/><path d="M2622,998L2275,1359L2645,1318Z" fill="#c4c4c4" stroke="#c4c4c4" stroke-width="1.51"/><path d="M2275,1359L2500,1442L2645,1318Z" fill="#c2c2c2" stroke="#c2c2c2" stroke-width="1.51"/><path d="M2315,-435L2327,27L2649,-35Z" fill="#d9d9d9" stroke="#d9d9d9" stroke-width="1.51"/><path d="M2064,290L2263,606L2585,325Z" fill="#d2d2d2" stroke="#d2d2d2" stroke-width="1.51"/><path d="M2327,27L2128,129L2585,325Z" fill="#d5d5d5" stroke="#d5d5d5" stroke-width="1.51"/><path d="M2128,129L2064,290L2585,325Z" fill="#d5d5d5" stroke="#d5d5d5" stroke-width="1.51"/><path d="M2051,794L2135,1039L2263,606Z" fill="#cdcdcd" stroke="#cdcdcd" stroke-width="1.51"/><path d="M2211,1462L2408,1803L2500,1442Z" fill="#c0c0c0" stroke="#c0c0c0" stroke-width="1.51"/><path d="M2275,1359L2211,1462L2500,1442Z" fill="#c3c3c3" stroke="#c3c3c3" stroke-width="1.51"/><path d="M2408,1803L1961,2016L2483,2047Z" fill="#bbbbbb" stroke="#bbbbbb" stroke-width="1.51"/><path d="M1961,2016L2266,2311L2483,2047Z" fill="#bababa" stroke="#bababa" stroke-width="1.51"/><path d="M2315,-435L1980,-213L2327,27Z" fill="#dcdcdc" stroke="#dcdcdc" stroke-width="1.51"/><path d="M2211,1462L1857,1702L2408,1803Z" fill="#c1c1c1" stroke="#c1c1c1" stroke-width="1.51"/><path d="M1857,1702L1961,2016L2408,1803Z" fill="#bfbfbf" stroke="#bfbfbf" stroke-width="1.51"/><path d="M1044,2679L701,2732L1496,2753Z" fill="#bcbcbc" stroke="#bcbcbc" stroke-width="1.51"/><path d="M1697,-449L1783,-350L2315,-435Z" fill="#e2e2e2" stroke="#e2e2e2" stroke-width="1.51"/><path d="M1980,-213L2128,129L2327,27Z" fill="#dadada" stroke="#dadada" stroke-width="1.51"/><path d="M2135,1039L1954,1149L2275,1359Z" fill="#c8c8c8" stroke="#c8c8c8" stroke-width="1.51"/><path d="M1783,-350L1980,-213L2315,-435Z" fill="#e0e0e0" stroke="#e0e0e0" stroke-width="1.51"/><path d="M2064,290L1823,495L2263,606Z" fill="#d3d3d3" stroke="#d3d3d3" stroke-width="1.51"/><path d="M1954,1149L2211,1462L2275,1359Z" fill="#c6c6c6" stroke="#c6c6c6" stroke-width="1.51"/><path d="M1823,495L2051,794L2263,606Z" fill="#d1d1d1" stroke="#d1d1d1" stroke-width="1.51"/><path d="M1803,2374L2122,2488L2266,2311Z" fill="#b7b7b7" stroke="#b7b7b7" stroke-width="1.51"/><path d="M1961,2016L1803,2374L2266,2311Z" fill="#bababa" stroke="#bababa" stroke-width="1.51"/><path d="M1803,2374L1927,2508L2122,2488Z" fill="#b7b7b7" stroke="#b7b7b7" stroke-width="1.51"/><path d="M1954,1149L1857,1702L2211,1462Z" fill="#c5c5c5" stroke="#c5c5c5" stroke-width="1.51"/><path d="M1602,1342L1857,1702L1954,1149Z" fill="#c8c8c8" stroke="#c8c8c8" stroke-width="1.51"/><path d="M1980,-213L1729,242L2128,129Z" fill="#dbdbdb" stroke="#dbdbdb" stroke-width="1.51"/><path d="M2051,794L1954,1149L2135,1039Z" fill="#cbcbcb" stroke="#cbcbcb" stroke-width="1.51"/><path d="M1729,242L2064,290L2128,129Z" fill="#d8d8d8" stroke="#d8d8d8" stroke-width="1.51"/><path d="M1158,2677L1044,2679L1496,2753Z" fill="#bbbbbb" stroke="#bbbbbb" stroke-width="1.51"/><path d="M1611,-179L1729,242L1980,-213Z" fill="#dedede" stroke="#dedede" stroke-width="1.51"/><path d="M1683,1035L1954,1149L2051,794Z" fill="#cdcdcd" stroke="#cdcdcd" stroke-width="1.51"/><path d="M1729,242L1823,495L2064,290Z" fill="#d7d7d7" stroke="#d7d7d7" stroke-width="1.51"/><path d="M1823,495L1683,1035L2051,794Z" fill="#d1d1d1" stroke="#d1d1d1" stroke-width="1.51"/><path d="M-229,-458L572,-404L1047,-554Z" fill="#f1f1f1" stroke="#f1f1f1" stroke-width="1.51"/><path d="M1581,524L1683,1035L1823,495Z" fill="#d4d4d4" stroke="#d4d4d4" stroke-width="1.51"/><path d="M1684,2290L1803,2374L1961,2016Z" fill="#bcbcbc" stroke="#bcbcbc" stroke-width="1.51"/><path d="M1666,1995L1684,2290L1961,2016Z" fill="#bebebe" stroke="#bebebe" stroke-width="1.51"/><path d="M1857,1702L1666,1995L1961,2016Z" fill="#c1c1c1" stroke="#c1c1c1" stroke-width="1.51"/><path d="M1783,-350L1611,-179L1980,-213Z" fill="#e1e1e1" stroke="#e1e1e1" stroke-width="1.51"/><path d="M1683,1035L1602,1342L1954,1149Z" fill="#cccccc" stroke="#cccccc" stroke-width="1.51"/><path d="M1803,2374L1496,2753L1927,2508Z" fill="#b8b8b8" stroke="#b8b8b8" stroke-width="1.51"/><path d="M1581,524L1376,933L1683,1035Z" fill="#d3d3d3" stroke="#d3d3d3" stroke-width="1.51"/><path d="M1535,1722L1666,1995L1857,1702Z" fill="#c3c3c3" stroke="#c3c3c3" stroke-width="1.51"/><path d="M1602,1342L1535,1722L1857,1702Z" fill="#c7c7c7" stroke="#c7c7c7" stroke-width="1.51"/><path d="M1684,2290L1496,2753L1803,2374Z" fill="#bababa" stroke="#bababa" stroke-width="1.51"/><path d="M1729,242L1581,524L1823,495Z" fill="#d7d7d7" stroke="#d7d7d7" stroke-width="1.51"/><path d="M1697,-449L1611,-179L1783,-350Z" fill="#e3e3e3" stroke="#e3e3e3" stroke-width="1.51"/><path d="M1390,1396L1535,1722L1602,1342Z" fill="#cacaca" stroke="#cacaca" stroke-width="1.51"/><path d="M1256,2361L1496,2753L1684,2290Z" fill="#bcbcbc" stroke="#bcbcbc" stroke-width="1.51"/><path d="M1611,-179L1222,146L1729,242Z" fill="#dfdfdf" stroke="#dfdfdf" stroke-width="1.51"/><path d="M1222,146L1581,524L1729,242Z" fill="#dbdbdb" stroke="#dbdbdb" stroke-width="1.51"/><path d="M1156,-557L1177,-201L1611,-179Z" fill="#e7e7e7" stroke="#e7e7e7" stroke-width="1.51"/><path d="M1376,933L1602,1342L1683,1035Z" fill="#cfcfcf" stroke="#cfcfcf" stroke-width="1.51"/><path d="M1666,1995L1291,1982L1684,2290Z" fill="#c1c1c1" stroke="#c1c1c1" stroke-width="1.51"/><path d="M1291,1982L1256,2361L1684,2290Z" fill="#c0c0c0" stroke="#c0c0c0" stroke-width="1.51"/><path d="M1156,-557L1611,-179L1697,-449Z" fill="#e6e6e6" stroke="#e6e6e6" stroke-width="1.51"/><path d="M1376,933L1390,1396L1602,1342Z" fill="#cecece" stroke="#cecece" stroke-width="1.51"/><path d="M1535,1722L1291,1982L1666,1995Z" fill="#c4c4c4" stroke="#c4c4c4" stroke-width="1.51"/><path d="M1084,556L1376,933L1581,524Z" fill="#d7d7d7" stroke="#d7d7d7" stroke-width="1.51"/><path d="M1177,-201L1222,146L1611,-179Z" fill="#e2e2e2" stroke="#e2e2e2" stroke-width="1.51"/><path d="M1222,146L1084,556L1581,524Z" fill="#dcdcdc" stroke="#dcdcdc" stroke-width="1.51"/><path d="M1256,2361L1158,2677L1496,2753Z" fill="#bcbcbc" stroke="#bcbcbc" stroke-width="1.51"/><path d="M1390,1396L1198,1597L1535,1722Z" fill="#cacaca" stroke="#cacaca" stroke-width="1.51"/><path d="M1198,1597L1291,1982L1535,1722Z" fill="#c7c7c7" stroke="#c7c7c7" stroke-width="1.51"/><path d="M1084,556L1016,723L1376,933Z" fill="#d8d8d8" stroke="#d8d8d8" stroke-width="1.51"/><path d="M1376,933L995,1139L1390,1396Z" fill="#d1d1d1" stroke="#d1d1d1" stroke-width="1.51"/><path d="M995,1139L1198,1597L1390,1396Z" fill="#cecece" stroke="#cecece" stroke-width="1.51"/><path d="M947,2248L1256,2361L1291,1982Z" fill="#c3c3c3" stroke="#c3c3c3" stroke-width="1.51"/><path d="M1016,723L995,1139L1376,933Z" fill="#d5d5d5" stroke="#d5d5d5" stroke-width="1.51"/><path d="M1156,-557L1047,-554L1177,-201Z" fill="#eaeaea" stroke="#eaeaea" stroke-width="1.51"/><path d="M995,1139L936,1638L1198,1597Z" fill="#cfcfcf" stroke="#cfcfcf" stroke-width="1.51"/><path d="M1177,-201L913,-43L1222,146Z" fill="#e4e4e4" stroke="#e4e4e4" stroke-width="1.51"/><path d="M1044,2679L1158,2677L1256,2361Z" fill="#bebebe" stroke="#bebebe" stroke-width="1.51"/><path d="M848,1812L947,2248L1291,1982Z" fill="#c7c7c7" stroke="#c7c7c7" stroke-width="1.51"/><path d="M1198,1597L936,1638L1291,1982Z" fill="#cacaca" stroke="#cacaca" stroke-width="1.51"/><path d="M936,1638L848,1812L1291,1982Z" fill="#cacaca" stroke="#cacaca" stroke-width="1.51"/><path d="M781,129L1084,556L1222,146Z" fill="#e0e0e0" stroke="#e0e0e0" stroke-width="1.51"/><path d="M947,2248L1044,2679L1256,2361Z" fill="#c0c0c0" stroke="#c0c0c0" stroke-width="1.51"/><path d="M913,-43L781,129L1222,146Z" fill="#e4e4e4" stroke="#e4e4e4" stroke-width="1.51"/><path d="M1047,-554L913,-43L1177,-201Z" fill="#e8e8e8" stroke="#e8e8e8" stroke-width="1.51"/><path d="M702,1293L936,1638L995,1139Z" fill="#d2d2d2" stroke="#d2d2d2" stroke-width="1.51"/><path d="M787,1017L995,1139L1016,723Z" fill="#d7d7d7" stroke="#d7d7d7" stroke-width="1.51"/><path d="M781,129L672,428L1084,556Z" fill="#e1e1e1" stroke="#e1e1e1" stroke-width="1.51"/><path d="M947,2248L701,2732L1044,2679Z" fill="#c0c0c0" stroke="#c0c0c0" stroke-width="1.51"/><path d="M572,-404L913,-43L1047,-554Z" fill="#ebebeb" stroke="#ebebeb" stroke-width="1.51"/><path d="M672,428L1016,723L1084,556Z" fill="#dddddd" stroke="#dddddd" stroke-width="1.51"/><path d="M848,1812L577,2065L947,2248Z" fill="#c9c9c9" stroke="#c9c9c9" stroke-width="1.51"/><path d="M672,428L787,1017L1016,723Z" fill="#dcdcdc" stroke="#dcdcdc" stroke-width="1.51"/><path d="M572,-404L575,-63L913,-43Z" fill="#eaeaea" stroke="#eaeaea" stroke-width="1.51"/><path d="M436,2322L701,2732L947,2248Z" fill="#c4c4c4" stroke="#c4c4c4" stroke-width="1.51"/><path d="M787,1017L702,1293L995,1139Z" fill="#d5d5d5" stroke="#d5d5d5" stroke-width="1.51"/><path d="M-229,-458L232,-318L572,-404Z" fill="#f3f3f3" stroke="#f3f3f3" stroke-width="1.51"/><path d="M672,428L490,967L787,1017Z" fill="#dcdcdc" stroke="#dcdcdc" stroke-width="1.51"/><path d="M702,1293L452,1482L936,1638Z" fill="#d2d2d2" stroke="#d2d2d2" stroke-width="1.51"/><path d="M577,2065L436,2322L947,2248Z" fill="#c8c8c8" stroke="#c8c8c8" stroke-width="1.51"/><path d="M452,1482L848,1812L936,1638Z" fill="#cfcfcf" stroke="#cfcfcf" stroke-width="1.51"/><path d="M575,-63L781,129L913,-43Z" fill="#e7e7e7" stroke="#e7e7e7" stroke-width="1.51"/><path d="M130,2632L-66,2760L701,2732Z" fill="#c4c4c4" stroke="#c4c4c4" stroke-width="1.51"/><path d="M597,187L672,428L781,129Z" fill="#e4e4e4" stroke="#e4e4e4" stroke-width="1.51"/><path d="M285,1679L577,2065L848,1812Z" fill="#cecece" stroke="#cecece" stroke-width="1.51"/><path d="M452,1482L285,1679L848,1812Z" fill="#d1d1d1" stroke="#d1d1d1" stroke-width="1.51"/><path d="M206,769L490,967L672,428Z" fill="#dfdfdf" stroke="#dfdfdf" stroke-width="1.51"/><path d="M575,-63L597,187L781,129Z" fill="#e7e7e7" stroke="#e7e7e7" stroke-width="1.51"/><path d="M490,967L702,1293L787,1017Z" fill="#d8d8d8" stroke="#d8d8d8" stroke-width="1.51"/><path d="M176,704L206,769L672,428Z" fill="#e2e2e2" stroke="#e2e2e2" stroke-width="1.51"/><path d="M436,2322L130,2632L701,2732Z" fill="#c5c5c5" stroke="#c5c5c5" stroke-width="1.51"/><path d="M490,967L452,1482L702,1293Z" fill="#d7d7d7" stroke="#d7d7d7" stroke-width="1.51"/><path d="M597,187L114,191L672,428Z" fill="#e6e6e6" stroke="#e6e6e6" stroke-width="1.51"/><path d="M114,191L176,704L672,428Z" fill="#e5e5e5" stroke="#e5e5e5" stroke-width="1.51"/><path d="M130,1132L452,1482L490,967Z" fill="#dadada" stroke="#dadada" stroke-width="1.51"/><path d="M572,-404L232,-318L575,-63Z" fill="#eeeeee" stroke="#eeeeee" stroke-width="1.51"/><path d="M232,-318L213,-59L575,-63Z" fill="#eeeeee" stroke="#eeeeee" stroke-width="1.51"/><path d="M112,1851L360,2214L577,2065Z" fill="#cdcdcd" stroke="#cdcdcd" stroke-width="1.51"/><path d="M285,1679L112,1851L577,2065Z" fill="#d0d0d0" stroke="#d0d0d0" stroke-width="1.51"/><path d="M360,2214L436,2322L577,2065Z" fill="#cacaca" stroke="#cacaca" stroke-width="1.51"/><path d="M575,-63L213,-59L597,187Z" fill="#eaeaea" stroke="#eaeaea" stroke-width="1.51"/><path d="M213,-59L114,191L597,187Z" fill="#eaeaea" stroke="#eaeaea" stroke-width="1.51"/><path d="M206,769L130,1132L490,967Z" fill="#dedede" stroke="#dedede" stroke-width="1.51"/><path d="M130,1132L285,1679L452,1482Z" fill="#d7d7d7" stroke="#d7d7d7" stroke-width="1.51"/><path d="M360,2214L130,2632L436,2322Z" fill="#c8c8c8" stroke="#c8c8c8" stroke-width="1.51"/><path d="M130,1132L-116,1272L285,1679Z" fill="#dadada" stroke="#dadada" stroke-width="1.51"/><path d="M-116,1272L-133,1652L285,1679Z" fill="#d8d8d8" stroke="#d8d8d8" stroke-width="1.51"/><path d="M-41,2285L130,2632L360,2214Z" fill="#cacaca" stroke="#cacaca" stroke-width="1.51"/><path d="M112,1851L-41,2285L360,2214Z" fill="#cecece" stroke="#cecece" stroke-width="1.51"/><path d="M114,191L-120,235L176,704Z" fill="#e9e9e9" stroke="#e9e9e9" stroke-width="1.51"/><path d="M-17,1040L130,1132L206,769Z" fill="#dfdfdf" stroke="#dfdfdf" stroke-width="1.51"/><path d="M-133,1652L112,1851L285,1679Z" fill="#d4d4d4" stroke="#d4d4d4" stroke-width="1.51"/><path d="M-120,235L-234,663L176,704Z" fill="#e7e7e7" stroke="#e7e7e7" stroke-width="1.51"/><path d="M-229,-458L-275,21L213,-59Z" fill="#f2f2f2" stroke="#f2f2f2" stroke-width="1.51"/><path d="M-229,-458L213,-59L232,-318Z" fill="#f3f3f3" stroke="#f3f3f3" stroke-width="1.51"/><path d="M176,704L-17,1040L206,769Z" fill="#e1e1e1" stroke="#e1e1e1" stroke-width="1.51"/><path d="M-275,21L114,191L213,-59Z" fill="#eeeeee" stroke="#eeeeee" stroke-width="1.51"/><path d="M-332,1968L-41,2285L112,1851Z" fill="#d1d1d1" stroke="#d1d1d1" stroke-width="1.51"/><path d="M-275,21L-120,235L114,191Z" fill="#eeeeee" stroke="#eeeeee" stroke-width="1.51"/><path d="M-234,663L-17,1040L176,704Z" fill="#e3e3e3" stroke="#e3e3e3" stroke-width="1.51"/><path d="M-198,1784L-332,1968L112,1851Z" fill="#d5d5d5" stroke="#d5d5d5" stroke-width="1.51"/><path d="M-17,1040L-116,1272L130,1132Z" fill="#dedede" stroke="#dedede" stroke-width="1.51"/><path d="M-41,2285L-66,2760L130,2632Z" fill="#c9c9c9" stroke="#c9c9c9" stroke-width="1.51"/><path d="M-133,1652L-198,1784L112,1851Z" fill="#d6d6d6" stroke="#d6d6d6" stroke-width="1.51"/><path d="M-462,-336L-275,21L-229,-458Z" fill="#f6f6f6" stroke="#f6f6f6" stroke-width="1.51"/><path d="M-338,1437L-133,1652L-116,1272Z" fill="#dbdbdb" stroke="#dbdbdb" stroke-width="1.51"/><path d="M-406,2691L-66,2760L-41,2285Z" fill="#cbcbcb" stroke="#cbcbcb" stroke-width="1.51"/><path d="M-499,2346L-406,2691L-41,2285Z" fill="#cecece" stroke="#cecece" stroke-width="1.51"/><path d="M-337,1008L-116,1272L-17,1040Z" fill="#e0e0e0" stroke="#e0e0e0" stroke-width="1.51"/><path d="M-234,663L-337,1008L-17,1040Z" fill="#e3e3e3" stroke="#e3e3e3" stroke-width="1.51"/><path d="M-337,1008L-375,1149L-116,1272Z" fill="#e1e1e1" stroke="#e1e1e1" stroke-width="1.51"/><path d="M-332,1968L-499,2346L-41,2285Z" fill="#d1d1d1" stroke="#d1d1d1" stroke-width="1.51"/><path d="M-442,99L-585,624L-234,663Z" fill="#ececec" stroke="#ececec" stroke-width="1.51"/><path d="M-442,99L-234,663L-120,235Z" fill="#ededed" stroke="#ededed" stroke-width="1.51"/><path d="M-375,1149L-338,1437L-116,1272Z" fill="#dfdfdf" stroke="#dfdfdf" stroke-width="1.51"/><path d="M-275,21L-442,99L-120,235Z" fill="#f0f0f0" stroke="#f0f0f0" stroke-width="1.51"/><path d="M-338,1437L-198,1784L-133,1652Z" fill="#d9d9d9" stroke="#d9d9d9" stroke-width="1.51"/><path d="M-462,-336L-561,-253L-275,21Z" fill="#f6f6f6" stroke="#f6f6f6" stroke-width="1.51"/><path d="M-585,624L-337,1008L-234,663Z" fill="#e7e7e7" stroke="#e7e7e7" stroke-width="1.51"/><path d="M-338,1437L-332,1968L-198,1784Z" fill="#d8d8d8" stroke="#d8d8d8" stroke-width="1.51"/><path d="M-561,-253L-442,99L-275,21Z" fill="#f4f4f4" stroke="#f4f4f4" stroke-width="1.51"/><path d="M-338,1437L-499,2346L-332,1968Z" fill="#d6d6d6" stroke="#d6d6d6" stroke-width="1.51"/><path d="M-375,1149L-585,624L-338,1437Z" fill="#e3e3e3" stroke="#e3e3e3" stroke-width="1.51"/><path d="M-585,624L-499,2346L-338,1437Z" fill="#dedede" stroke="#dedede" stroke-width="1.51"/><path d="M-585,624L-375,1149L-337,1008Z" fill="#e5e5e5" stroke="#e5e5e5" stroke-width="1.51"/><path d="M-561,-253L-585,624L-442,99Z" fill="#f2f2f2" stroke="#f2f2f2" stroke-width="1.51"/></svg>