<svg xmlns="http://www.w3.org/2000/svg" width="1920" height="1080"><path d="M82,1263L-190,1250L314,1298Z" fill="#dbdbdb" stroke="#dbdbdb" stroke-width="1.51"/><path d="M161,-323L549,-320L766,-329Z" fill="#bcbcbc" stroke="#bcbcbc" stroke-width="1.51"/><path d="M314,1298L-190,1250L824,1374Z" fill="#e5e5e5" stroke="#e5e5e5" stroke-width="1.51"/><path d="M766,-329L1383,-305L1521,-326Z" fill="#cecece" stroke="#cecece" stroke-width="1.51"/><path d="M1321,1341L824,1374L1828,1341Z" fill="#ffffff" stroke="#ffffff" stroke-width="1.51"/><path d="M1615,1326L1321,1341L1828,1341Z" fill="#ffffff" stroke="#ffffff" stroke-width="1.51"/><path d="M1875,1309L1828,1341L2071,1272Z" fill="#ffffff" stroke="#ffffff" stroke-width="1.51"/><path d="M2108,-260L2024,-7L2136,12Z" fill="#dbdbdb" stroke="#dbdbdb" stroke-width="1.51"/><path d="M2011,410L2054,569L2151,608Z" fill="#fefefe" stroke="#fefefe" stroke-width="1.51"/><path d="M2014,900L1939,1098L2171,953Z" fill="#ffffff" stroke="#ffffff" stroke-width="1.51"/><path d="M1993,803L2014,900L2171,953Z" fill="#ffffff" stroke="#ffffff" stroke-width="1.51"/><path d="M2171,953L1939,1098L2174,1235Z" fill="#ffffff" stroke="#ffffff" stroke-width="1.51"/><path d="M1939,1098L2071,1272L2174,1235Z" fill="#ffffff" stroke="#ffffff" stroke-width="1.51"/><path d="M2108,-260L2136,12L2178,285Z" fill="#e1e1e1" stroke="#e1e1e1" stroke-width="1.51"/><path d="M2011,410L2151,608L2178,285Z" fill="#f9f9f9" stroke="#f9f9f9" stroke-width="1.51"/><path d="M2136,12L2109,79L2178,285Z" fill="#e7e7e7" stroke="#e7e7e7" stroke-width="1.51"/><path d="M1993,803L2171,953L2191,669Z" fill="#ffffff" stroke="#ffffff" stroke-width="1.51"/><path d="M2151,608L1993,803L2191,669Z" fill="#ffffff" stroke="#ffffff" stroke-width="1.51"/><path d="M2178,285L2151,608L2191,669Z" fill="#fefefe" stroke="#fefefe" stroke-width="1.51"/><path d="M2171,953L2174,1235L2191,669Z" fill="#ffffff" stroke="#ffffff" stroke-width="1.51"/><path d="M1902,97L1856,322L2011,410Z" fill="#f0f0f0" stroke="#f0f0f0" stroke-width="1.51"/><path d="M2054,569L1993,803L2151,608Z" fill="#ffffff" stroke="#ffffff" stroke-width="1.51"/><path d="M2109,79L1902,97L2178,285Z" fill="#e9e9e9" stroke="#e9e9e9" stroke-width="1.51"/><path d="M1902,97L2011,410L2178,285Z" fill="#efefef" stroke="#efefef" stroke-width="1.51"/><path d="M1844,-218L2024,-7L2108,-260Z" fill="#d7d7d7" stroke="#d7d7d7" stroke-width="1.51"/><path d="M2024,-7L2109,79L2136,12Z" fill="#e2e2e2" stroke="#e2e2e2" stroke-width="1.51"/><path d="M1952,-319L1844,-218L2108,-260Z" fill="#d1d1d1" stroke="#d1d1d1" stroke-width="1.51"/><path d="M2024,-7L1902,97L2109,79Z" fill="#e3e3e3" stroke="#e3e3e3" stroke-width="1.51"/><path d="M1761,766L1993,803L2054,569Z" fill="#ffffff" stroke="#ffffff" stroke-width="1.51"/><path d="M1939,1098L1875,1309L2071,1272Z" fill="#ffffff" stroke="#ffffff" stroke-width="1.51"/><path d="M2011,410L1664,500L2054,569Z" fill="#fcfcfc" stroke="#fcfcfc" stroke-width="1.51"/><path d="M1664,500L1761,766L2054,569Z" fill="#ffffff" stroke="#ffffff" stroke-width="1.51"/><path d="M1856,322L1664,500L2011,410Z" fill="#f7f7f7" stroke="#f7f7f7" stroke-width="1.51"/><path d="M1777,846L1939,1098L2014,900Z" fill="#ffffff" stroke="#ffffff" stroke-width="1.51"/><path d="M1753,-105L1902,97L2024,-7Z" fill="#e0e0e0" stroke="#e0e0e0" stroke-width="1.51"/><path d="M1844,-218L1753,-105L2024,-7Z" fill="#dadada" stroke="#dadada" stroke-width="1.51"/><path d="M1993,803L1777,846L2014,900Z" fill="#ffffff" stroke="#ffffff" stroke-width="1.51"/><path d="M1761,766L1777,846L1993,803Z" fill="#ffffff" stroke="#ffffff" stroke-width="1.51"/><path d="M1746,221L1856,322L1902,97Z" fill="#ececec" stroke="#ececec" stroke-width="1.51"/><path d="M1726,1092L1875,1309L1939,1098Z" fill="#ffffff" stroke="#ffffff" stroke-width="1.51"/><path d="M1777,846L1726,1092L1939,1098Z" fill="#ffffff" stroke="#ffffff" stroke-width="1.51"/><path d="M1521,-326L1844,-218L1952,-319Z" fill="#d0d0d0" stroke="#d0d0d0" stroke-width="1.51"/><path d="M766,-329L1153,-259L1383,-305Z" fill="#d0d0d0" stroke="#d0d0d0" stroke-width="1.51"/><path d="M1726,1092L1828,1341L1875,1309Z" fill="#ffffff" stroke="#ffffff" stroke-width="1.51"/><path d="M1753,-105L1651,-22L1902,97Z" fill="#e0e0e0" stroke="#e0e0e0" stroke-width="1.51"/><path d="M1651,-22L1746,221L1902,97Z" fill="#e6e6e6" stroke="#e6e6e6" stroke-width="1.51"/><path d="M1649,935L1726,1092L1777,846Z" fill="#ffffff" stroke="#ffffff" stroke-width="1.51"/><path d="M1726,1092L1615,1326L1828,1341Z" fill="#ffffff" stroke="#ffffff" stroke-width="1.51"/><path d="M1746,221L1664,500L1856,322Z" fill="#f4f4f4" stroke="#f4f4f4" stroke-width="1.51"/><path d="M1521,-326L1753,-105L1844,-218Z" fill="#d4d4d4" stroke="#d4d4d4" stroke-width="1.51"/><path d="M1664,500L1570,698L1761,766Z" fill="#ffffff" stroke="#ffffff" stroke-width="1.51"/><path d="M1543,1192L1615,1326L1726,1092Z" fill="#ffffff" stroke="#ffffff" stroke-width="1.51"/><path d="M1534,416L1664,500L1746,221Z" fill="#f5f5f5" stroke="#f5f5f5" stroke-width="1.51"/><path d="M1761,766L1649,935L1777,846Z" fill="#ffffff" stroke="#ffffff" stroke-width="1.51"/><path d="M1651,-22L1469,73L1746,221Z" fill="#e5e5e5" stroke="#e5e5e5" stroke-width="1.51"/><path d="M1521,-326L1651,-22L1753,-105Z" fill="#d7d7d7" stroke="#d7d7d7" stroke-width="1.51"/><path d="M1570,698L1649,935L1761,766Z" fill="#ffffff" stroke="#ffffff" stroke-width="1.51"/><path d="M1469,73L1534,416L1746,221Z" fill="#ededed" stroke="#ededed" stroke-width="1.51"/><path d="M1649,935L1543,1192L1726,1092Z" fill="#ffffff" stroke="#ffffff" stroke-width="1.51"/><path d="M1570,698L1363,943L1649,935Z" fill="#ffffff" stroke="#ffffff" stroke-width="1.51"/><path d="M1363,943L1543,1192L1649,935Z" fill="#ffffff" stroke="#ffffff" stroke-width="1.51"/><path d="M1521,-326L1383,-305L1651,-22Z" fill="#d4d4d4" stroke="#d4d4d4" stroke-width="1.51"/><path d="M1383,-305L1469,73L1651,-22Z" fill="#dbdbdb" stroke="#dbdbdb" stroke-width="1.51"/><path d="M1499,521L1570,698L1664,500Z" fill="#ffffff" stroke="#ffffff" stroke-width="1.51"/><path d="M1534,416L1499,521L1664,500Z" fill="#fbfbfb" stroke="#fbfbfb" stroke-width="1.51"/><path d="M1383,-305L1261,-65L1469,73Z" fill="#dadada" stroke="#dadada" stroke-width="1.51"/><path d="M1261,-65L1343,44L1469,73Z" fill="#e1e1e1" stroke="#e1e1e1" stroke-width="1.51"/><path d="M1469,73L1280,345L1534,416Z" fill="#f0f0f0" stroke="#f0f0f0" stroke-width="1.51"/><path d="M1452,650L1363,943L1570,698Z" fill="#ffffff" stroke="#ffffff" stroke-width="1.51"/><path d="M1499,521L1452,650L1570,698Z" fill="#ffffff" stroke="#ffffff" stroke-width="1.51"/><path d="M1543,1192L1321,1341L1615,1326Z" fill="#ffffff" stroke="#ffffff" stroke-width="1.51"/><path d="M1162,1294L824,1374L1321,1341Z" fill="#ffffff" stroke="#ffffff" stroke-width="1.51"/><path d="M1363,943L1270,1061L1543,1192Z" fill="#ffffff" stroke="#ffffff" stroke-width="1.51"/><path d="M1280,345L1420,472L1534,416Z" fill="#f7f7f7" stroke="#f7f7f7" stroke-width="1.51"/><path d="M1420,472L1499,521L1534,416Z" fill="#fbfbfb" stroke="#fbfbfb" stroke-width="1.51"/><path d="M1270,1061L1321,1341L1543,1192Z" fill="#ffffff" stroke="#ffffff" stroke-width="1.51"/><path d="M1343,44L1280,345L1469,73Z" fill="#e9e9e9" stroke="#e9e9e9" stroke-width="1.51"/><path d="M1270,1061L1201,1200L1321,1341Z" fill="#ffffff" stroke="#ffffff" stroke-width="1.51"/><path d="M1420,472L1452,650L1499,521Z" fill="#ffffff" stroke="#ffffff" stroke-width="1.51"/><path d="M1202,274L1280,345L1343,44Z" fill="#ededed" stroke="#ededed" stroke-width="1.51"/><path d="M1119,783L1363,943L1452,650Z" fill="#ffffff" stroke="#ffffff" stroke-width="1.51"/><path d="M1420,472L1147,550L1452,650Z" fill="#ffffff" stroke="#ffffff" stroke-width="1.51"/><path d="M1147,550L1119,783L1452,650Z" fill="#ffffff" stroke="#ffffff" stroke-width="1.51"/><path d="M1119,783L1257,964L1363,943Z" fill="#ffffff" stroke="#ffffff" stroke-width="1.51"/><path d="M1153,-259L1261,-65L1383,-305Z" fill="#d4d4d4" stroke="#d4d4d4" stroke-width="1.51"/><path d="M1280,345L1147,550L1420,472Z" fill="#fafafa" stroke="#fafafa" stroke-width="1.51"/><path d="M1257,964L1270,1061L1363,943Z" fill="#ffffff" stroke="#ffffff" stroke-width="1.51"/><path d="M1061,149L1202,274L1343,44Z" fill="#e9e9e9" stroke="#e9e9e9" stroke-width="1.51"/><path d="M1201,1200L1162,1294L1321,1341Z" fill="#ffffff" stroke="#ffffff" stroke-width="1.51"/><path d="M1261,-65L1151,-67L1343,44Z" fill="#dfdfdf" stroke="#dfdfdf" stroke-width="1.51"/><path d="M1151,-67L1061,149L1343,44Z" fill="#e3e3e3" stroke="#e3e3e3" stroke-width="1.51"/><path d="M1153,-259L1151,-67L1261,-65Z" fill="#d9d9d9" stroke="#d9d9d9" stroke-width="1.51"/><path d="M1202,274L1147,550L1280,345Z" fill="#f6f6f6" stroke="#f6f6f6" stroke-width="1.51"/><path d="M1024,1256L824,1374L1162,1294Z" fill="#ffffff" stroke="#ffffff" stroke-width="1.51"/><path d="M1257,964L895,1053L1270,1061Z" fill="#ffffff" stroke="#ffffff" stroke-width="1.51"/><path d="M895,1053L1201,1200L1270,1061Z" fill="#ffffff" stroke="#ffffff" stroke-width="1.51"/><path d="M1025,782L883,915L1257,964Z" fill="#ffffff" stroke="#ffffff" stroke-width="1.51"/><path d="M883,915L895,1053L1257,964Z" fill="#ffffff" stroke="#ffffff" stroke-width="1.51"/><path d="M1119,783L1025,782L1257,964Z" fill="#ffffff" stroke="#ffffff" stroke-width="1.51"/><path d="M1025,782L1119,783L1147,550Z" fill="#ffffff" stroke="#ffffff" stroke-width="1.51"/><path d="M1036,-167L1151,-67L1153,-259Z" fill="#d7d7d7" stroke="#d7d7d7" stroke-width="1.51"/><path d="M895,1053L1024,1256L1201,1200Z" fill="#ffffff" stroke="#ffffff" stroke-width="1.51"/><path d="M1024,1256L1162,1294L1201,1200Z" fill="#ffffff" stroke="#ffffff" stroke-width="1.51"/><path d="M1003,219L951,268L1202,274Z" fill="#eeeeee" stroke="#eeeeee" stroke-width="1.51"/><path d="M951,268L946,468L1202,274Z" fill="#f3f3f3" stroke="#f3f3f3" stroke-width="1.51"/><path d="M1061,149L1003,219L1202,274Z" fill="#ececec" stroke="#ececec" stroke-width="1.51"/><path d="M946,468L1147,550L1202,274Z" fill="#f8f8f8" stroke="#f8f8f8" stroke-width="1.51"/><path d="M946,468L1025,782L1147,550Z" fill="#ffffff" stroke="#ffffff" stroke-width="1.51"/><path d="M971,-26L1061,149L1151,-67Z" fill="#e1e1e1" stroke="#e1e1e1" stroke-width="1.51"/><path d="M766,-329L1036,-167L1153,-259Z" fill="#d2d2d2" stroke="#d2d2d2" stroke-width="1.51"/><path d="M1036,-167L971,-26L1151,-67Z" fill="#dbdbdb" stroke="#dbdbdb" stroke-width="1.51"/><path d="M946,468L763,589L1025,782Z" fill="#fdfdfd" stroke="#fdfdfd" stroke-width="1.51"/><path d="M971,-26L1003,219L1061,149Z" fill="#e7e7e7" stroke="#e7e7e7" stroke-width="1.51"/><path d="M654,1289L314,1298L824,1374Z" fill="#f0f0f0" stroke="#f0f0f0" stroke-width="1.51"/><path d="M971,-26L739,53L1003,219Z" fill="#e3e3e3" stroke="#e3e3e3" stroke-width="1.51"/><path d="M763,589L727,644L1025,782Z" fill="#fafafa" stroke="#fafafa" stroke-width="1.51"/><path d="M766,-329L971,-26L1036,-167Z" fill="#d5d5d5" stroke="#d5d5d5" stroke-width="1.51"/><path d="M739,53L951,268L1003,219Z" fill="#e8e8e8" stroke="#e8e8e8" stroke-width="1.51"/><path d="M895,1053L824,1374L1024,1256Z" fill="#fdfdfd" stroke="#fdfdfd" stroke-width="1.51"/><path d="M727,644L883,915L1025,782Z" fill="#fbfbfb" stroke="#fbfbfb" stroke-width="1.51"/><path d="M694,1166L824,1374L895,1053Z" fill="#f9f9f9" stroke="#f9f9f9" stroke-width="1.51"/><path d="M766,-329L693,-26L971,-26Z" fill="#d3d3d3" stroke="#d3d3d3" stroke-width="1.51"/><path d="M747,389L946,468L951,268Z" fill="#f2f2f2" stroke="#f2f2f2" stroke-width="1.51"/><path d="M693,-26L739,53L971,-26Z" fill="#dadada" stroke="#dadada" stroke-width="1.51"/><path d="M739,53L747,389L951,268Z" fill="#e7e7e7" stroke="#e7e7e7" stroke-width="1.51"/><path d="M747,389L763,589L946,468Z" fill="#f6f6f6" stroke="#f6f6f6" stroke-width="1.51"/><path d="M614,-138L693,-26L766,-329Z" fill="#cdcdcd" stroke="#cdcdcd" stroke-width="1.51"/><path d="M694,1166L654,1289L824,1374Z" fill="#f5f5f5" stroke="#f5f5f5" stroke-width="1.51"/><path d="M623,783L787,984L883,915Z" fill="#f7f7f7" stroke="#f7f7f7" stroke-width="1.51"/><path d="M727,644L623,783L883,915Z" fill="#f6f6f6" stroke="#f6f6f6" stroke-width="1.51"/><path d="M787,984L694,1166L895,1053Z" fill="#f8f8f8" stroke="#f8f8f8" stroke-width="1.51"/><path d="M883,915L787,984L895,1053Z" fill="#fbfbfb" stroke="#fbfbfb" stroke-width="1.51"/><path d="M739,53L624,375L747,389Z" fill="#e5e5e5" stroke="#e5e5e5" stroke-width="1.51"/><path d="M623,783L612,941L787,984Z" fill="#f3f3f3" stroke="#f3f3f3" stroke-width="1.51"/><path d="M161,-323L284,-285L549,-320Z" fill="#b6b6b6" stroke="#b6b6b6" stroke-width="1.51"/><path d="M530,59L624,375L739,53Z" fill="#dcdcdc" stroke="#dcdcdc" stroke-width="1.51"/><path d="M747,389L624,375L763,589Z" fill="#f0f0f0" stroke="#f0f0f0" stroke-width="1.51"/><path d="M549,-320L614,-138L766,-329Z" fill="#c5c5c5" stroke="#c5c5c5" stroke-width="1.51"/><path d="M615,1130L694,1166L787,984Z" fill="#f4f4f4" stroke="#f4f4f4" stroke-width="1.51"/><path d="M612,941L615,1130L787,984Z" fill="#f3f3f3" stroke="#f3f3f3" stroke-width="1.51"/><path d="M624,375L479,627L727,644Z" fill="#f1f1f1" stroke="#f1f1f1" stroke-width="1.51"/><path d="M624,375L727,644L763,589Z" fill="#f5f5f5" stroke="#f5f5f5" stroke-width="1.51"/><path d="M693,-26L530,59L739,53Z" fill="#d6d6d6" stroke="#d6d6d6" stroke-width="1.51"/><path d="M479,627L623,783L727,644Z" fill="#f1f1f1" stroke="#f1f1f1" stroke-width="1.51"/><path d="M-109,1244L-190,1250L82,1263Z" fill="#d6d6d6" stroke="#d6d6d6" stroke-width="1.51"/><path d="M615,1130L654,1289L694,1166Z" fill="#f3f3f3" stroke="#f3f3f3" stroke-width="1.51"/><path d="M614,-138L530,59L693,-26Z" fill="#d0d0d0" stroke="#d0d0d0" stroke-width="1.51"/><path d="M354,464L479,627L624,375Z" fill="#e9e9e9" stroke="#e9e9e9" stroke-width="1.51"/><path d="M530,59L358,366L624,375Z" fill="#dddddd" stroke="#dddddd" stroke-width="1.51"/><path d="M615,1130L314,1298L654,1289Z" fill="#eeeeee" stroke="#eeeeee" stroke-width="1.51"/><path d="M337,876L255,952L615,1130Z" fill="#e9e9e9" stroke="#e9e9e9" stroke-width="1.51"/><path d="M255,952L280,1209L615,1130Z" fill="#e8e8e8" stroke="#e8e8e8" stroke-width="1.51"/><path d="M612,941L337,876L615,1130Z" fill="#ededed" stroke="#ededed" stroke-width="1.51"/><path d="M280,1209L314,1298L615,1130Z" fill="#e9e9e9" stroke="#e9e9e9" stroke-width="1.51"/><path d="M337,876L612,941L623,783Z" fill="#ededed" stroke="#ededed" stroke-width="1.51"/><path d="M358,366L354,464L624,375Z" fill="#e2e2e2" stroke="#e2e2e2" stroke-width="1.51"/><path d="M479,627L337,876L623,783Z" fill="#ececec" stroke="#ececec" stroke-width="1.51"/><path d="M549,-320L271,-99L614,-138Z" fill="#c3c3c3" stroke="#c3c3c3" stroke-width="1.51"/><path d="M271,-99L530,59L614,-138Z" fill="#c9c9c9" stroke="#c9c9c9" stroke-width="1.51"/><path d="M316,79L358,366L530,59Z" fill="#d4d4d4" stroke="#d4d4d4" stroke-width="1.51"/><path d="M284,-285L271,-99L549,-320Z" fill="#bcbcbc" stroke="#bcbcbc" stroke-width="1.51"/><path d="M271,-99L316,79L530,59Z" fill="#cacaca" stroke="#cacaca" stroke-width="1.51"/><path d="M266,710L337,876L479,627Z" fill="#e7e7e7" stroke="#e7e7e7" stroke-width="1.51"/><path d="M354,464L257,628L479,627Z" fill="#e7e7e7" stroke="#e7e7e7" stroke-width="1.51"/><path d="M257,628L266,710L479,627Z" fill="#e6e6e6" stroke="#e6e6e6" stroke-width="1.51"/><path d="M177,-32L224,78L271,-99Z" fill="#c2c2c2" stroke="#c2c2c2" stroke-width="1.51"/><path d="M271,-99L224,78L316,79Z" fill="#c6c6c6" stroke="#c6c6c6" stroke-width="1.51"/><path d="M202,396L257,628L354,464Z" fill="#e1e1e1" stroke="#e1e1e1" stroke-width="1.51"/><path d="M316,79L224,78L358,366Z" fill="#d0d0d0" stroke="#d0d0d0" stroke-width="1.51"/><path d="M224,78L202,396L358,366Z" fill="#d4d4d4" stroke="#d4d4d4" stroke-width="1.51"/><path d="M202,396L354,464L358,366Z" fill="#dddddd" stroke="#dddddd" stroke-width="1.51"/><path d="M266,710L176,743L337,876Z" fill="#e3e3e3" stroke="#e3e3e3" stroke-width="1.51"/><path d="M51,328L202,396L224,78Z" fill="#d0d0d0" stroke="#d0d0d0" stroke-width="1.51"/><path d="M255,952L74,1107L280,1209Z" fill="#e1e1e1" stroke="#e1e1e1" stroke-width="1.51"/><path d="M176,743L255,952L337,876Z" fill="#e3e3e3" stroke="#e3e3e3" stroke-width="1.51"/><path d="M161,-323L271,-99L284,-285Z" fill="#b7b7b7" stroke="#b7b7b7" stroke-width="1.51"/><path d="M280,1209L82,1263L314,1298Z" fill="#e2e2e2" stroke="#e2e2e2" stroke-width="1.51"/><path d="M161,-323L177,-32L271,-99Z" fill="#bababa" stroke="#bababa" stroke-width="1.51"/><path d="M74,1107L82,1263L280,1209Z" fill="#dfdfdf" stroke="#dfdfdf" stroke-width="1.51"/><path d="M176,743L-25,870L255,952Z" fill="#dedede" stroke="#dedede" stroke-width="1.51"/><path d="M202,396L-86,580L257,628Z" fill="#dedede" stroke="#dedede" stroke-width="1.51"/><path d="M257,628L176,743L266,710Z" fill="#e2e2e2" stroke="#e2e2e2" stroke-width="1.51"/><path d="M-5,722L176,743L257,628Z" fill="#dfdfdf" stroke="#dfdfdf" stroke-width="1.51"/><path d="M-86,580L-5,722L257,628Z" fill="#dbdbdb" stroke="#dbdbdb" stroke-width="1.51"/><path d="M-25,870L74,1107L255,952Z" fill="#dddddd" stroke="#dddddd" stroke-width="1.51"/><path d="M-93,-170L-78,-114L161,-323Z" fill="#b0b0b0" stroke="#b0b0b0" stroke-width="1.51"/><path d="M161,-323L-78,-114L177,-32Z" fill="#b6b6b6" stroke="#b6b6b6" stroke-width="1.51"/><path d="M51,328L-86,580L202,396Z" fill="#d5d5d5" stroke="#d5d5d5" stroke-width="1.51"/><path d="M177,-32L-94,115L224,78Z" fill="#c2c2c2" stroke="#c2c2c2" stroke-width="1.51"/><path d="M-94,115L51,328L224,78Z" fill="#c7c7c7" stroke="#c7c7c7" stroke-width="1.51"/><path d="M-5,722L-25,870L176,743Z" fill="#dbdbdb" stroke="#dbdbdb" stroke-width="1.51"/><path d="M-78,-114L-94,115L177,-32Z" fill="#bababa" stroke="#bababa" stroke-width="1.51"/><path d="M-25,870L-73,1041L74,1107Z" fill="#d9d9d9" stroke="#d9d9d9" stroke-width="1.51"/><path d="M-253,-319L-93,-170L161,-323Z" fill="#aaaaaa" stroke="#aaaaaa" stroke-width="1.51"/><path d="M-73,1041L-109,1244L74,1107Z" fill="#d8d8d8" stroke="#d8d8d8" stroke-width="1.51"/><path d="M74,1107L-109,1244L82,1263Z" fill="#d9d9d9" stroke="#d9d9d9" stroke-width="1.51"/><path d="M-302,403L-86,580L51,328Z" fill="#cfcfcf" stroke="#cfcfcf" stroke-width="1.51"/><path d="M-94,115L-302,403L51,328Z" fill="#c6c6c6" stroke="#c6c6c6" stroke-width="1.51"/><path d="M-221,40L-94,115L-78,-114Z" fill="#b6b6b6" stroke="#b6b6b6" stroke-width="1.51"/><path d="M-180,1063L-109,1244L-73,1041Z" fill="#d4d4d4" stroke="#d4d4d4" stroke-width="1.51"/><path d="M-172,958L-73,1041L-25,870Z" fill="#d5d5d5" stroke="#d5d5d5" stroke-width="1.51"/><path d="M-319,829L-25,870L-5,722Z" fill="#d5d5d5" stroke="#d5d5d5" stroke-width="1.51"/><path d="M-223,604L-319,829L-5,722Z" fill="#d2d2d2" stroke="#d2d2d2" stroke-width="1.51"/><path d="M-86,580L-223,604L-5,722Z" fill="#d5d5d5" stroke="#d5d5d5" stroke-width="1.51"/><path d="M-319,829L-172,958L-25,870Z" fill="#d2d2d2" stroke="#d2d2d2" stroke-width="1.51"/><path d="M-180,1063L-190,1250L-109,1244Z" fill="#d3d3d3" stroke="#d3d3d3" stroke-width="1.51"/><path d="M-221,40L-302,403L-94,115Z" fill="#bebebe" stroke="#bebebe" stroke-width="1.51"/><path d="M-302,403L-223,604L-86,580Z" fill="#d1d1d1" stroke="#d1d1d1" stroke-width="1.51"/><path d="M-172,958L-180,1063L-73,1041Z" fill="#d4d4d4" stroke="#d4d4d4" stroke-width="1.51"/><path d="M-93,-170L-322,0L-78,-114Z" fill="#b0b0b0" stroke="#b0b0b0" stroke-width="1.51"/><path d="M-322,0L-221,40L-78,-114Z" fill="#b2b2b2" stroke="#b2b2b2" stroke-width="1.51"/><path d="M-253,-319L-322,0L-93,-170Z" fill="#aaaaaa" stroke="#aaaaaa" stroke-width="1.51"/><path d="M-322,0L-302,403L-221,40Z" fill="#b8b8b8" stroke="#b8b8b8" stroke-width="1.51"/><path d="M-319,829L-180,1063L-172,958Z" fill="#d1d1d1" stroke="#d1d1d1" stroke-width="1.51"/><path d="M-319,829L-190,1250L-180,1063Z" fill="#d0d0d0" stroke="#d0d0d0" stroke-width="1.51"/><path d="M-302,403L-319,829L-223,604Z" fill="#cecece" stroke="#cecece" stroke-width="1.51"/><path d="M-322,0L-319,829L-302,403Z" fill="#c6c6c6" stroke="#c6c6c6" stroke-width="1.51"/></svg>