<svg xmlns="http://www.w3.org/2000/svg" width="3840" height="2160"><path d="M-47,-520L941,-488L1385,-522Z" fill="#a9a9a9" stroke="#a9a9a9" stroke-width="1.51"/><path d="M3192,2558L2610,2610L3477,2568Z" fill="#eeeeee" stroke="#eeeeee" stroke-width="1.51"/><path d="M1385,-522L2205,-476L3636,-516Z" fill="#b9b9b9" stroke="#b9b9b9" stroke-width="1.51"/><path d="M2205,-476L2360,-466L3636,-516Z" fill="#bdbdbd" stroke="#bdbdbd" stroke-width="1.51"/><path d="M3477,2568L2610,2610L3858,2562Z" fill="#f0f0f0" stroke="#f0f0f0" stroke-width="1.51"/><path d="M4234,957L3850,1211L4270,1566Z" fill="#e4e4e4" stroke="#e4e4e4" stroke-width="1.51"/><path d="M4234,957L4270,1566L4355,689Z" fill="#e3e3e3" stroke="#e3e3e3" stroke-width="1.51"/><path d="M3992,-440L3978,75L4382,43Z" fill="#cfcfcf" stroke="#cfcfcf" stroke-width="1.51"/><path d="M3817,2205L3858,2562L4396,2519Z" fill="#f5f5f5" stroke="#f5f5f5" stroke-width="1.51"/><path d="M3636,-516L3992,-440L4403,-462Z" fill="#c9c9c9" stroke="#c9c9c9" stroke-width="1.51"/><path d="M3992,-440L4382,43L4403,-462Z" fill="#cecece" stroke="#cecece" stroke-width="1.51"/><path d="M4355,689L4270,1566L4405,2054Z" fill="#e9e9e9" stroke="#e9e9e9" stroke-width="1.51"/><path d="M4270,1566L4294,1802L4405,2054Z" fill="#eeeeee" stroke="#eeeeee" stroke-width="1.51"/><path d="M3817,2205L4396,2519L4405,2054Z" fill="#f4f4f4" stroke="#f4f4f4" stroke-width="1.51"/><path d="M4059,460L4355,689L4410,226Z" fill="#d9d9d9" stroke="#d9d9d9" stroke-width="1.51"/><path d="M4382,43L3978,75L4410,226Z" fill="#d4d4d4" stroke="#d4d4d4" stroke-width="1.51"/><path d="M3978,75L4059,460L4410,226Z" fill="#d5d5d5" stroke="#d5d5d5" stroke-width="1.51"/><path d="M4355,689L4405,2054L4410,226Z" fill="#e3e3e3" stroke="#e3e3e3" stroke-width="1.51"/><path d="M4403,-462L4382,43L4410,226Z" fill="#d3d3d3" stroke="#d3d3d3" stroke-width="1.51"/><path d="M4294,1802L3817,2205L4405,2054Z" fill="#f0f0f0" stroke="#f0f0f0" stroke-width="1.51"/><path d="M3889,624L4234,957L4355,689Z" fill="#dddddd" stroke="#dddddd" stroke-width="1.51"/><path d="M4059,460L3889,624L4355,689Z" fill="#dadada" stroke="#dadada" stroke-width="1.51"/><path d="M3850,1211L3851,1574L4270,1566Z" fill="#e6e6e6" stroke="#e6e6e6" stroke-width="1.51"/><path d="M4270,1566L3874,1721L4294,1802Z" fill="#ebebeb" stroke="#ebebeb" stroke-width="1.51"/><path d="M3874,1721L3817,2205L4294,1802Z" fill="#ededed" stroke="#ededed" stroke-width="1.51"/><path d="M3851,1574L3874,1721L4270,1566Z" fill="#e8e8e8" stroke="#e8e8e8" stroke-width="1.51"/><path d="M3889,624L3670,838L4234,957Z" fill="#dbdbdb" stroke="#dbdbdb" stroke-width="1.51"/><path d="M3670,838L3850,1211L4234,957Z" fill="#dedede" stroke="#dedede" stroke-width="1.51"/><path d="M-47,-520L162,-490L941,-488Z" fill="#a5a5a5" stroke="#a5a5a5" stroke-width="1.51"/><path d="M3670,838L3671,1129L3850,1211Z" fill="#dddddd" stroke="#dddddd" stroke-width="1.51"/><path d="M3559,-16L3978,75L3992,-440Z" fill="#cccccc" stroke="#cccccc" stroke-width="1.51"/><path d="M3636,-516L3559,-16L3992,-440Z" fill="#c8c8c8" stroke="#c8c8c8" stroke-width="1.51"/><path d="M3978,75L3623,441L4059,460Z" fill="#d3d3d3" stroke="#d3d3d3" stroke-width="1.51"/><path d="M3623,441L3889,624L4059,460Z" fill="#d6d6d6" stroke="#d6d6d6" stroke-width="1.51"/><path d="M602,2527L-445,2593L1326,2657Z" fill="#d5d5d5" stroke="#d5d5d5" stroke-width="1.51"/><path d="M2360,-466L2717,-305L3636,-516Z" fill="#bebebe" stroke="#bebebe" stroke-width="1.51"/><path d="M3569,1772L3817,2205L3874,1721Z" fill="#eaeaea" stroke="#eaeaea" stroke-width="1.51"/><path d="M3559,-16L3623,441L3978,75Z" fill="#d0d0d0" stroke="#d0d0d0" stroke-width="1.51"/><path d="M2717,-305L3200,-291L3636,-516Z" fill="#c2c2c2" stroke="#c2c2c2" stroke-width="1.51"/><path d="M3569,1772L3612,2218L3817,2205Z" fill="#ececec" stroke="#ececec" stroke-width="1.51"/><path d="M3671,1129L3566,1518L3850,1211Z" fill="#e0e0e0" stroke="#e0e0e0" stroke-width="1.51"/><path d="M3850,1211L3566,1518L3851,1574Z" fill="#e3e3e3" stroke="#e3e3e3" stroke-width="1.51"/><path d="M3817,2205L3612,2218L3858,2562Z" fill="#f1f1f1" stroke="#f1f1f1" stroke-width="1.51"/><path d="M3612,2218L3477,2568L3858,2562Z" fill="#f2f2f2" stroke="#f2f2f2" stroke-width="1.51"/><path d="M3623,441L3670,838L3889,624Z" fill="#d7d7d7" stroke="#d7d7d7" stroke-width="1.51"/><path d="M3851,1574L3569,1772L3874,1721Z" fill="#e7e7e7" stroke="#e7e7e7" stroke-width="1.51"/><path d="M3566,1518L3569,1772L3851,1574Z" fill="#e5e5e5" stroke="#e5e5e5" stroke-width="1.51"/><path d="M3200,-291L3247,-66L3559,-16Z" fill="#c8c8c8" stroke="#c8c8c8" stroke-width="1.51"/><path d="M3569,1772L3283,1809L3612,2218Z" fill="#e8e8e8" stroke="#e8e8e8" stroke-width="1.51"/><path d="M3559,-16L3178,408L3623,441Z" fill="#cfcfcf" stroke="#cfcfcf" stroke-width="1.51"/><path d="M3200,-291L3559,-16L3636,-516Z" fill="#c6c6c6" stroke="#c6c6c6" stroke-width="1.51"/><path d="M3623,441L3177,591L3670,838Z" fill="#d4d4d4" stroke="#d4d4d4" stroke-width="1.51"/><path d="M3177,591L3147,1191L3670,838Z" fill="#d6d6d6" stroke="#d6d6d6" stroke-width="1.51"/><path d="M3670,838L3147,1191L3671,1129Z" fill="#dbdbdb" stroke="#dbdbdb" stroke-width="1.51"/><path d="M3147,1191L3566,1518L3671,1129Z" fill="#dedede" stroke="#dedede" stroke-width="1.51"/><path d="M3247,-66L3178,408L3559,-16Z" fill="#cbcbcb" stroke="#cbcbcb" stroke-width="1.51"/><path d="M3283,1809L3112,2086L3612,2218Z" fill="#e8e8e8" stroke="#e8e8e8" stroke-width="1.51"/><path d="M3192,2558L3477,2568L3612,2218Z" fill="#efefef" stroke="#efefef" stroke-width="1.51"/><path d="M3178,408L3177,591L3623,441Z" fill="#d0d0d0" stroke="#d0d0d0" stroke-width="1.51"/><path d="M3112,2086L3192,2558L3612,2218Z" fill="#ececec" stroke="#ececec" stroke-width="1.51"/><path d="M3101,1506L3283,1809L3566,1518Z" fill="#e1e1e1" stroke="#e1e1e1" stroke-width="1.51"/><path d="M3147,1191L3101,1506L3566,1518Z" fill="#dedede" stroke="#dedede" stroke-width="1.51"/><path d="M3566,1518L3283,1809L3569,1772Z" fill="#e4e4e4" stroke="#e4e4e4" stroke-width="1.51"/><path d="M2853,2196L2890,2471L3112,2086Z" fill="#e8e8e8" stroke="#e8e8e8" stroke-width="1.51"/><path d="M2873,774L2895,1171L3147,1191Z" fill="#d5d5d5" stroke="#d5d5d5" stroke-width="1.51"/><path d="M2873,774L3147,1191L3177,591Z" fill="#d3d3d3" stroke="#d3d3d3" stroke-width="1.51"/><path d="M2842,99L2829,252L3178,408Z" fill="#c9c9c9" stroke="#c9c9c9" stroke-width="1.51"/><path d="M2890,2471L2610,2610L3192,2558Z" fill="#ececec" stroke="#ececec" stroke-width="1.51"/><path d="M3112,2086L2890,2471L3192,2558Z" fill="#eaeaea" stroke="#eaeaea" stroke-width="1.51"/><path d="M2842,99L3178,408L3247,-66Z" fill="#c9c9c9" stroke="#c9c9c9" stroke-width="1.51"/><path d="M2874,1886L3112,2086L3283,1809Z" fill="#e4e4e4" stroke="#e4e4e4" stroke-width="1.51"/><path d="M3101,1506L2874,1886L3283,1809Z" fill="#e1e1e1" stroke="#e1e1e1" stroke-width="1.51"/><path d="M3200,-291L2842,99L3247,-66Z" fill="#c6c6c6" stroke="#c6c6c6" stroke-width="1.51"/><path d="M2895,1171L3101,1506L3147,1191Z" fill="#dadada" stroke="#dadada" stroke-width="1.51"/><path d="M2717,-305L2842,99L3200,-291Z" fill="#c3c3c3" stroke="#c3c3c3" stroke-width="1.51"/><path d="M2829,252L3177,591L3178,408Z" fill="#cdcdcd" stroke="#cdcdcd" stroke-width="1.51"/><path d="M2009,2443L1326,2657L2610,2610Z" fill="#e3e3e3" stroke="#e3e3e3" stroke-width="1.51"/><path d="M2829,252L2873,774L3177,591Z" fill="#cecece" stroke="#cecece" stroke-width="1.51"/><path d="M2711,1567L2874,1886L3101,1506Z" fill="#dedede" stroke="#dedede" stroke-width="1.51"/><path d="M2895,1171L2711,1567L3101,1506Z" fill="#dadada" stroke="#dadada" stroke-width="1.51"/><path d="M2874,1886L2853,2196L3112,2086Z" fill="#e5e5e5" stroke="#e5e5e5" stroke-width="1.51"/><path d="M2473,472L2499,601L2829,252Z" fill="#c9c9c9" stroke="#c9c9c9" stroke-width="1.51"/><path d="M2717,-305L2464,71L2842,99Z" fill="#c3c3c3" stroke="#c3c3c3" stroke-width="1.51"/><path d="M2829,252L2499,601L2873,774Z" fill="#cccccc" stroke="#cccccc" stroke-width="1.51"/><path d="M2412,1859L2853,2196L2874,1886Z" fill="#e1e1e1" stroke="#e1e1e1" stroke-width="1.51"/><path d="M2853,2196L2463,2299L2890,2471Z" fill="#e7e7e7" stroke="#e7e7e7" stroke-width="1.51"/><path d="M2463,2299L2610,2610L2890,2471Z" fill="#e8e8e8" stroke="#e8e8e8" stroke-width="1.51"/><path d="M2873,774L2358,1012L2895,1171Z" fill="#d2d2d2" stroke="#d2d2d2" stroke-width="1.51"/><path d="M2358,1012L2711,1567L2895,1171Z" fill="#d5d5d5" stroke="#d5d5d5" stroke-width="1.51"/><path d="M2358,1012L2448,1583L2711,1567Z" fill="#d6d6d6" stroke="#d6d6d6" stroke-width="1.51"/><path d="M2412,1859L2463,2299L2853,2196Z" fill="#e2e2e2" stroke="#e2e2e2" stroke-width="1.51"/><path d="M2499,601L2358,1012L2873,774Z" fill="#cecece" stroke="#cecece" stroke-width="1.51"/><path d="M2711,1567L2412,1859L2874,1886Z" fill="#dddddd" stroke="#dddddd" stroke-width="1.51"/><path d="M2464,71L2829,252L2842,99Z" fill="#c5c5c5" stroke="#c5c5c5" stroke-width="1.51"/><path d="M2464,71L2473,472L2829,252Z" fill="#c6c6c6" stroke="#c6c6c6" stroke-width="1.51"/><path d="M2448,1583L2412,1859L2711,1567Z" fill="#dbdbdb" stroke="#dbdbdb" stroke-width="1.51"/><path d="M2360,-466L2464,71L2717,-305Z" fill="#bebebe" stroke="#bebebe" stroke-width="1.51"/><path d="M1607,2484L1326,2657L2009,2443Z" fill="#dfdfdf" stroke="#dfdfdf" stroke-width="1.51"/><path d="M2412,1859L2190,2207L2463,2299Z" fill="#e0e0e0" stroke="#e0e0e0" stroke-width="1.51"/><path d="M2463,2299L2009,2443L2610,2610Z" fill="#e5e5e5" stroke="#e5e5e5" stroke-width="1.51"/><path d="M2177,985L2042,1540L2358,1012Z" fill="#d0d0d0" stroke="#d0d0d0" stroke-width="1.51"/><path d="M2160,623L2177,985L2358,1012Z" fill="#cccccc" stroke="#cccccc" stroke-width="1.51"/><path d="M2358,1012L2042,1540L2448,1583Z" fill="#d4d4d4" stroke="#d4d4d4" stroke-width="1.51"/><path d="M2190,2207L2009,2443L2463,2299Z" fill="#e2e2e2" stroke="#e2e2e2" stroke-width="1.51"/><path d="M2360,-466L2205,-476L2464,71Z" fill="#bbbbbb" stroke="#bbbbbb" stroke-width="1.51"/><path d="M2205,-476L2001,44L2464,71Z" fill="#bdbdbd" stroke="#bdbdbd" stroke-width="1.51"/><path d="M2464,71L2117,271L2473,472Z" fill="#c4c4c4" stroke="#c4c4c4" stroke-width="1.51"/><path d="M2473,472L2160,623L2499,601Z" fill="#c8c8c8" stroke="#c8c8c8" stroke-width="1.51"/><path d="M2160,623L2358,1012L2499,601Z" fill="#cbcbcb" stroke="#cbcbcb" stroke-width="1.51"/><path d="M2042,1540L2412,1859L2448,1583Z" fill="#d8d8d8" stroke="#d8d8d8" stroke-width="1.51"/><path d="M2117,271L2160,623L2473,472Z" fill="#c5c5c5" stroke="#c5c5c5" stroke-width="1.51"/><path d="M2001,44L2117,271L2464,71Z" fill="#c0c0c0" stroke="#c0c0c0" stroke-width="1.51"/><path d="M2042,1540L1971,1712L2412,1859Z" fill="#d7d7d7" stroke="#d7d7d7" stroke-width="1.51"/><path d="M1971,1712L2190,2207L2412,1859Z" fill="#dbdbdb" stroke="#dbdbdb" stroke-width="1.51"/><path d="M1831,1314L2042,1540L2177,985Z" fill="#d0d0d0" stroke="#d0d0d0" stroke-width="1.51"/><path d="M1971,1712L1849,1886L2190,2207Z" fill="#d9d9d9" stroke="#d9d9d9" stroke-width="1.51"/><path d="M2117,271L1710,352L2160,623Z" fill="#c2c2c2" stroke="#c2c2c2" stroke-width="1.51"/><path d="M2160,623L1667,776L2177,985Z" fill="#c8c8c8" stroke="#c8c8c8" stroke-width="1.51"/><path d="M1849,1886L1757,2107L2190,2207Z" fill="#dbdbdb" stroke="#dbdbdb" stroke-width="1.51"/><path d="M1385,-522L1674,-311L2205,-476Z" fill="#b4b4b4" stroke="#b4b4b4" stroke-width="1.51"/><path d="M1735,-94L2001,44L2205,-476Z" fill="#bababa" stroke="#bababa" stroke-width="1.51"/><path d="M1674,-311L1735,-94L2205,-476Z" fill="#b7b7b7" stroke="#b7b7b7" stroke-width="1.51"/><path d="M1757,2107L2009,2443L2190,2207Z" fill="#dedede" stroke="#dedede" stroke-width="1.51"/><path d="M1600,984L1831,1314L2177,985Z" fill="#cbcbcb" stroke="#cbcbcb" stroke-width="1.51"/><path d="M1667,776L1600,984L2177,985Z" fill="#c8c8c8" stroke="#c8c8c8" stroke-width="1.51"/><path d="M1710,352L1667,776L2160,623Z" fill="#c3c3c3" stroke="#c3c3c3" stroke-width="1.51"/><path d="M2001,44L1710,352L2117,271Z" fill="#bfbfbf" stroke="#bfbfbf" stroke-width="1.51"/><path d="M1831,1314L1971,1712L2042,1540Z" fill="#d2d2d2" stroke="#d2d2d2" stroke-width="1.51"/><path d="M1735,-94L1710,352L2001,44Z" fill="#bcbcbc" stroke="#bcbcbc" stroke-width="1.51"/><path d="M1757,2107L1607,2484L2009,2443Z" fill="#dedede" stroke="#dedede" stroke-width="1.51"/><path d="M1831,1314L1849,1886L1971,1712Z" fill="#d4d4d4" stroke="#d4d4d4" stroke-width="1.51"/><path d="M-69,2491L-445,2593L602,2527Z" fill="#cfcfcf" stroke="#cfcfcf" stroke-width="1.51"/><path d="M930,2521L602,2527L1326,2657Z" fill="#d9d9d9" stroke="#d9d9d9" stroke-width="1.51"/><path d="M1475,677L1667,776L1710,352Z" fill="#c2c2c2" stroke="#c2c2c2" stroke-width="1.51"/><path d="M1481,67L1710,352L1735,-94Z" fill="#bababa" stroke="#bababa" stroke-width="1.51"/><path d="M1265,1311L1230,1862L1831,1314Z" fill="#cdcdcd" stroke="#cdcdcd" stroke-width="1.51"/><path d="M1831,1314L1230,1862L1849,1886Z" fill="#d2d2d2" stroke="#d2d2d2" stroke-width="1.51"/><path d="M1230,1862L1757,2107L1849,1886Z" fill="#d6d6d6" stroke="#d6d6d6" stroke-width="1.51"/><path d="M1600,984L1265,1311L1831,1314Z" fill="#cacaca" stroke="#cacaca" stroke-width="1.51"/><path d="M1297,1117L1265,1311L1600,984Z" fill="#c8c8c8" stroke="#c8c8c8" stroke-width="1.51"/><path d="M1314,2161L1607,2484L1757,2107Z" fill="#dadada" stroke="#dadada" stroke-width="1.51"/><path d="M1230,1862L1314,2161L1757,2107Z" fill="#d5d5d5" stroke="#d5d5d5" stroke-width="1.51"/><path d="M1674,-311L1481,67L1735,-94Z" fill="#b7b7b7" stroke="#b7b7b7" stroke-width="1.51"/><path d="M1481,67L1244,459L1710,352Z" fill="#bbbbbb" stroke="#bbbbbb" stroke-width="1.51"/><path d="M1244,459L1475,677L1710,352Z" fill="#bebebe" stroke="#bebebe" stroke-width="1.51"/><path d="M1475,677L1600,984L1667,776Z" fill="#c4c4c4" stroke="#c4c4c4" stroke-width="1.51"/><path d="M1385,-522L1481,67L1674,-311Z" fill="#b4b4b4" stroke="#b4b4b4" stroke-width="1.51"/><path d="M1385,-522L949,-81L1481,67Z" fill="#b3b3b3" stroke="#b3b3b3" stroke-width="1.51"/><path d="M1475,677L1297,1117L1600,984Z" fill="#c5c5c5" stroke="#c5c5c5" stroke-width="1.51"/><path d="M1314,2161L1326,2657L1607,2484Z" fill="#dbdbdb" stroke="#dbdbdb" stroke-width="1.51"/><path d="M1029,1499L1230,1862L1265,1311Z" fill="#cccccc" stroke="#cccccc" stroke-width="1.51"/><path d="M941,-488L949,-81L1385,-522Z" fill="#aeaeae" stroke="#aeaeae" stroke-width="1.51"/><path d="M1099,816L1297,1117L1475,677Z" fill="#c3c3c3" stroke="#c3c3c3" stroke-width="1.51"/><path d="M1111,329L1244,459L1481,67Z" fill="#bababa" stroke="#bababa" stroke-width="1.51"/><path d="M949,-81L1111,329L1481,67Z" fill="#b6b6b6" stroke="#b6b6b6" stroke-width="1.51"/><path d="M1244,459L1099,816L1475,677Z" fill="#bfbfbf" stroke="#bfbfbf" stroke-width="1.51"/><path d="M1314,2161L1008,2209L1326,2657Z" fill="#d8d8d8" stroke="#d8d8d8" stroke-width="1.51"/><path d="M1008,2209L930,2521L1326,2657Z" fill="#d9d9d9" stroke="#d9d9d9" stroke-width="1.51"/><path d="M1106,1135L1265,1311L1297,1117Z" fill="#c6c6c6" stroke="#c6c6c6" stroke-width="1.51"/><path d="M1099,816L1106,1135L1297,1117Z" fill="#c3c3c3" stroke="#c3c3c3" stroke-width="1.51"/><path d="M1230,1862L1083,1903L1314,2161Z" fill="#d2d2d2" stroke="#d2d2d2" stroke-width="1.51"/><path d="M1083,1903L1008,2209L1314,2161Z" fill="#d4d4d4" stroke="#d4d4d4" stroke-width="1.51"/><path d="M1029,1499L1083,1903L1230,1862Z" fill="#cecece" stroke="#cecece" stroke-width="1.51"/><path d="M1111,329L1099,816L1244,459Z" fill="#bcbcbc" stroke="#bcbcbc" stroke-width="1.51"/><path d="M1106,1135L1029,1499L1265,1311Z" fill="#c8c8c8" stroke="#c8c8c8" stroke-width="1.51"/><path d="M941,-488L701,-291L949,-81Z" fill="#aeaeae" stroke="#aeaeae" stroke-width="1.51"/><path d="M1029,1499L732,1567L1083,1903Z" fill="#cbcbcb" stroke="#cbcbcb" stroke-width="1.51"/><path d="M580,358L509,835L1099,816Z" fill="#bababa" stroke="#bababa" stroke-width="1.51"/><path d="M732,1567L1029,1499L1106,1135Z" fill="#c7c7c7" stroke="#c7c7c7" stroke-width="1.51"/><path d="M557,1010L732,1567L1106,1135Z" fill="#c3c3c3" stroke="#c3c3c3" stroke-width="1.51"/><path d="M1099,816L557,1010L1106,1135Z" fill="#c1c1c1" stroke="#c1c1c1" stroke-width="1.51"/><path d="M949,-81L738,78L1111,329Z" fill="#b4b4b4" stroke="#b4b4b4" stroke-width="1.51"/><path d="M580,358L1099,816L1111,329Z" fill="#bababa" stroke="#bababa" stroke-width="1.51"/><path d="M738,78L580,358L1111,329Z" fill="#b5b5b5" stroke="#b5b5b5" stroke-width="1.51"/><path d="M509,835L557,1010L1099,816Z" fill="#bdbdbd" stroke="#bdbdbd" stroke-width="1.51"/><path d="M549,1703L488,2226L1008,2209Z" fill="#cecece" stroke="#cecece" stroke-width="1.51"/><path d="M549,1703L1008,2209L1083,1903Z" fill="#cfcfcf" stroke="#cfcfcf" stroke-width="1.51"/><path d="M732,1567L549,1703L1083,1903Z" fill="#cacaca" stroke="#cacaca" stroke-width="1.51"/><path d="M602,2527L930,2521L1008,2209Z" fill="#d6d6d6" stroke="#d6d6d6" stroke-width="1.51"/><path d="M488,2226L602,2527L1008,2209Z" fill="#d3d3d3" stroke="#d3d3d3" stroke-width="1.51"/><path d="M162,-490L701,-291L941,-488Z" fill="#a9a9a9" stroke="#a9a9a9" stroke-width="1.51"/><path d="M701,-291L738,78L949,-81Z" fill="#afafaf" stroke="#afafaf" stroke-width="1.51"/><path d="M280,1863L488,2226L549,1703Z" fill="#cbcbcb" stroke="#cbcbcb" stroke-width="1.51"/><path d="M386,2424L-69,2491L602,2527Z" fill="#d1d1d1" stroke="#d1d1d1" stroke-width="1.51"/><path d="M557,1010L382,1569L732,1567Z" fill="#c3c3c3" stroke="#c3c3c3" stroke-width="1.51"/><path d="M701,-291L143,-56L738,78Z" fill="#adadad" stroke="#adadad" stroke-width="1.51"/><path d="M143,-56L580,358L738,78Z" fill="#b0b0b0" stroke="#b0b0b0" stroke-width="1.51"/><path d="M382,1569L549,1703L732,1567Z" fill="#c7c7c7" stroke="#c7c7c7" stroke-width="1.51"/><path d="M370,983L382,1569L557,1010Z" fill="#bfbfbf" stroke="#bfbfbf" stroke-width="1.51"/><path d="M143,-56L322,391L580,358Z" fill="#b0b0b0" stroke="#b0b0b0" stroke-width="1.51"/><path d="M322,391L509,835L580,358Z" fill="#b5b5b5" stroke="#b5b5b5" stroke-width="1.51"/><path d="M488,2226L386,2424L602,2527Z" fill="#d2d2d2" stroke="#d2d2d2" stroke-width="1.51"/><path d="M162,-490L143,-56L701,-291Z" fill="#a9a9a9" stroke="#a9a9a9" stroke-width="1.51"/><path d="M322,391L163,734L509,835Z" fill="#b6b6b6" stroke="#b6b6b6" stroke-width="1.51"/><path d="M280,1863L183,2113L488,2226Z" fill="#cbcbcb" stroke="#cbcbcb" stroke-width="1.51"/><path d="M509,835L370,983L557,1010Z" fill="#bcbcbc" stroke="#bcbcbc" stroke-width="1.51"/><path d="M370,983L-62,1158L382,1569Z" fill="#bebebe" stroke="#bebebe" stroke-width="1.51"/><path d="M382,1569L280,1863L549,1703Z" fill="#c7c7c7" stroke="#c7c7c7" stroke-width="1.51"/><path d="M163,734L370,983L509,835Z" fill="#b9b9b9" stroke="#b9b9b9" stroke-width="1.51"/><path d="M-62,1158L-110,1335L382,1569Z" fill="#bebebe" stroke="#bebebe" stroke-width="1.51"/><path d="M183,2113L386,2424L488,2226Z" fill="#cfcfcf" stroke="#cfcfcf" stroke-width="1.51"/><path d="M-17,1889L280,1863L382,1569Z" fill="#c6c6c6" stroke="#c6c6c6" stroke-width="1.51"/><path d="M183,2113L-69,2491L386,2424Z" fill="#cecece" stroke="#cecece" stroke-width="1.51"/><path d="M-110,1335L-17,1889L382,1569Z" fill="#c2c2c2" stroke="#c2c2c2" stroke-width="1.51"/><path d="M163,734L-29,781L370,983Z" fill="#b7b7b7" stroke="#b7b7b7" stroke-width="1.51"/><path d="M-29,781L-62,1158L370,983Z" fill="#b9b9b9" stroke="#b9b9b9" stroke-width="1.51"/><path d="M143,-56L-50,-42L322,391Z" fill="#acacac" stroke="#acacac" stroke-width="1.51"/><path d="M-50,-42L-234,319L322,391Z" fill="#adadad" stroke="#adadad" stroke-width="1.51"/><path d="M-234,319L163,734L322,391Z" fill="#b1b1b1" stroke="#b1b1b1" stroke-width="1.51"/><path d="M-234,319L-29,781L163,734Z" fill="#b2b2b2" stroke="#b2b2b2" stroke-width="1.51"/><path d="M-17,1889L183,2113L280,1863Z" fill="#c8c8c8" stroke="#c8c8c8" stroke-width="1.51"/><path d="M-50,-42L143,-56L162,-490Z" fill="#a7a7a7" stroke="#a7a7a7" stroke-width="1.51"/><path d="M-47,-520L-50,-42L162,-490Z" fill="#a5a5a5" stroke="#a5a5a5" stroke-width="1.51"/><path d="M-17,1889L-240,2280L183,2113Z" fill="#c8c8c8" stroke="#c8c8c8" stroke-width="1.51"/><path d="M-240,2280L-69,2491L183,2113Z" fill="#cbcbcb" stroke="#cbcbcb" stroke-width="1.51"/><path d="M-606,1413L-517,1928L-110,1335Z" fill="#bdbdbd" stroke="#bdbdbd" stroke-width="1.51"/><path d="M-363,791L-435,965L-62,1158Z" fill="#b5b5b5" stroke="#b5b5b5" stroke-width="1.51"/><path d="M-435,-165L-50,-42L-47,-520Z" fill="#a4a4a4" stroke="#a4a4a4" stroke-width="1.51"/><path d="M-363,791L-62,1158L-29,781Z" fill="#b6b6b6" stroke="#b6b6b6" stroke-width="1.51"/><path d="M-234,319L-363,791L-29,781Z" fill="#b1b1b1" stroke="#b1b1b1" stroke-width="1.51"/><path d="M-110,1335L-517,1928L-17,1889Z" fill="#c1c1c1" stroke="#c1c1c1" stroke-width="1.51"/><path d="M-517,1928L-389,2068L-17,1889Z" fill="#c4c4c4" stroke="#c4c4c4" stroke-width="1.51"/><path d="M-389,2068L-240,2280L-17,1889Z" fill="#c6c6c6" stroke="#c6c6c6" stroke-width="1.51"/><path d="M-553,-468L-435,-165L-47,-520Z" fill="#a1a1a1" stroke="#a1a1a1" stroke-width="1.51"/><path d="M-435,-165L-234,319L-50,-42Z" fill="#a8a8a8" stroke="#a8a8a8" stroke-width="1.51"/><path d="M-435,353L-363,791L-234,319Z" fill="#adadad" stroke="#adadad" stroke-width="1.51"/><path d="M-435,965L-110,1335L-62,1158Z" fill="#b9b9b9" stroke="#b9b9b9" stroke-width="1.51"/><path d="M-240,2280L-445,2593L-69,2491Z" fill="#cccccc" stroke="#cccccc" stroke-width="1.51"/><path d="M-435,-165L-435,353L-234,319Z" fill="#a9a9a9" stroke="#a9a9a9" stroke-width="1.51"/><path d="M-435,965L-606,1413L-110,1335Z" fill="#b8b8b8" stroke="#b8b8b8" stroke-width="1.51"/><path d="M-389,2068L-445,2593L-240,2280Z" fill="#c9c9c9" stroke="#c9c9c9" stroke-width="1.51"/><path d="M-517,1928L-445,2593L-389,2068Z" fill="#c6c6c6" stroke="#c6c6c6" stroke-width="1.51"/><path d="M-435,353L-435,965L-363,791Z" fill="#b0b0b0" stroke="#b0b0b0" stroke-width="1.51"/><path d="M-517,1928L-606,1413L-445,2593Z" fill="#c2c2c2" stroke="#c2c2c2" stroke-width="1.51"/><path d="M-606,1413L-435,965L-435,353Z" fill="#b2b2b2" stroke="#b2b2b2" stroke-width="1.51"/><path d="M-553,-468L-606,1413L-435,353Z" fill="#ababab" stroke="#ababab" stroke-width="1.51"/><path d="M-553,-468L-435,353L-435,-165Z" fill="#a4a4a4" stroke="#a4a4a4" stroke-width="1.51"/></svg>